<svg width="338" height="277" viewBox="0 0 338 277" fill="none" xmlns="http://www.w3.org/2000/svg">
<path opacity="0.18" d="M154.007 0.289422C120.582 2.08832 88.1604 12.3421 59.7803 30.0899C46.5309 38.4882 33.986 48.7107 25.7582 62.0848C17.5303 75.4589 14.1254 92.4 19.436 107.156C22.6061 115.924 28.567 123.365 32.8209 131.655C37.0748 139.945 39.5224 150.15 35.2865 158.449C30.4275 168.057 18.7045 171.588 10.4044 178.505C-2.77278 189.468 -1.27352 199.366 3.17907 213.67C7.03558 226.168 13.2313 236.987 23.2835 245.529C42.9183 262.218 70.1035 267.374 94.787 271.474C130.552 277.416 167.221 278.969 203.221 274.183C220.842 271.853 237.288 266.959 254.367 262.651C271.057 258.47 287.874 253.25 302.108 243.281C319.049 231.414 331.028 213.727 335.759 193.593C340.49 173.459 337.642 152.289 327.758 134.121C313.524 107.932 286.52 91.0455 270.109 66.2027C260.463 51.6095 254.656 34.5329 243.421 21.1588C233.097 9.03993 205.858 4.27185 191.091 1.97812C183.688 0.845632 176.217 0.203072 168.729 0.0546296C163.825 -0.0537358 158.912 0.00947755 154.007 0.289422Z" fill="#68E1FD"/>
<path d="M56.2852 204.72C59.5185 207.05 62.7608 209.38 66.1658 211.448C72.3344 215.196 78.9817 218.076 85.6019 220.939C87.5346 221.77 89.4764 222.61 91.4182 223.413C92.6625 224.017 94.0122 224.372 95.3922 224.461C98.4178 224.461 100.811 222.095 103.521 220.668C105.878 219.413 108.551 218.862 110.936 217.688C111.839 217.255 112.742 216.532 112.661 215.566C112.579 214.6 111.757 214.139 110.972 213.76C104.099 210.148 96.6114 207.755 89.1784 205.434C87.9969 204.971 86.7347 204.75 85.4664 204.783C83.0911 205 81.2396 206.888 78.9907 207.682C77.4887 208.14 75.9117 208.3 74.3484 208.152C68.1347 207.818 62.4538 204.783 56.2852 204.72Z" fill="url(#paint0_linear)"/>
<path d="M184.787 221.707L184.273 221.779C183.893 222.077 184.95 222.158 184.787 221.707Z" fill="url(#paint1_linear)"/>
<path d="M69.8868 161.744C73.7433 163.289 77.7985 164.788 80.3003 166.558L139.557 208.161C144.095 211.447 148.824 214.463 153.718 217.191C157.71 219.35 159.986 223.513 164.827 224.56C167.222 224.975 169.674 224.932 172.053 224.434C175.948 223.801 179.78 222.828 183.505 221.526C183.965 221.372 184.607 221.273 184.814 221.716C219.324 217.002 252.326 204.476 286.538 197.956C286.946 197.889 287.32 197.689 287.603 197.386C287.886 197.084 288.061 196.697 288.101 196.286C288.141 195.874 288.044 195.46 287.825 195.109C287.606 194.758 287.277 194.489 286.89 194.344C284.024 193.334 281.065 192.608 278.057 192.177C272.638 191.166 267.156 190.181 261.683 189.287C250.65 187.382 239.511 186.145 228.329 185.585C209.76 184.835 191.028 186.786 172.667 183.905C155.218 181.196 138.762 174.197 122.523 167.235C118.612 165.555 114.621 163.812 111.55 160.914C109.147 158.611 107.215 155.549 104.144 154.032C101.073 152.515 97.1172 152.732 93.6671 152.895C86.8715 153.354 80.1133 154.259 73.4362 155.604C72.1718 157.59 70.9977 159.658 69.8868 161.744Z" fill="url(#paint2_linear)"/>
<path d="M284.966 186.271L207.457 152.56C205.783 151.719 203.894 151.404 202.038 151.657L106.14 159.848C104.333 160.11 104.632 167.975 106.14 169.258L162.759 217.444C164.461 218.944 166.496 220.014 168.696 220.567C170.895 221.12 173.195 221.139 175.403 220.623L284.298 194.164C285.68 193.784 286.276 186.939 284.966 186.271Z" fill="#68E1FD"/>
<path d="M284.966 186.271L207.457 152.56C205.783 151.719 203.894 151.404 202.038 151.657L106.14 159.848C104.333 160.11 104.632 167.975 106.14 169.258L162.759 217.444C164.461 218.944 166.496 220.014 168.696 220.567C170.895 221.12 173.195 221.139 175.403 220.623L284.298 194.164C285.68 193.784 286.276 186.939 284.966 186.271Z" fill="url(#paint3_linear)"/>
<path d="M106.14 163.623L162.75 211.809C164.451 213.31 166.487 214.38 168.687 214.932C170.887 215.483 173.187 215.499 175.394 214.979L284.244 188.529C284.684 188.342 285.032 187.987 285.212 187.544C285.391 187.1 285.388 186.603 285.201 186.163C285.059 185.829 284.82 185.546 284.515 185.35L254.665 168.508L246.835 164.11L223 150.664C221.326 149.823 219.437 149.508 217.581 149.761L107.124 159.378C105.282 159.64 104.677 162.358 106.14 163.623Z" fill="#68E1FD"/>
<path d="M217.626 152.425L116.616 167.37L147.712 192.601L251.369 171.633L217.626 152.425Z" fill="url(#paint4_linear)"/>
<path d="M228.193 177.9L186.567 186.307L208.089 203.862L251.369 194.155L228.193 177.9Z" fill="url(#paint5_linear)"/>
<path d="M249.002 197.198C248.579 198.055 247.977 198.812 247.237 199.418C246.497 200.024 245.636 200.465 244.712 200.711C241.66 201.442 223.831 206.003 223.831 206.003C223.831 206.003 220.932 206.355 219.315 204.413L249.002 197.198Z" fill="url(#paint6_linear)"/>
<path d="M220.787 149.761L106.799 166.016C105.963 166.131 105.115 165.924 104.427 165.435C103.739 164.947 103.263 164.215 103.096 163.388L86.8392 81.2831C86.5004 79.6413 86.8276 77.9322 87.749 76.5317C88.6704 75.1311 90.1105 74.1539 91.7524 73.8149C92.0055 73.7611 92.262 73.7249 92.5201 73.7065L205.09 63.773C206.75 63.6166 208.404 64.1219 209.693 65.1789C210.982 66.2359 211.801 67.7591 211.973 69.4171L220.787 149.761Z" fill="#68E1FD"/>
<path d="M220.787 149.761L107.097 165.935C106.179 166.068 105.246 165.843 104.489 165.307C103.732 164.77 103.211 163.964 103.033 163.054L86.8302 81.2831C86.4913 79.6413 86.8186 77.9322 87.74 76.5317C88.6614 75.1311 90.1014 74.1539 91.7434 73.8149C91.9965 73.7611 92.253 73.7249 92.5111 73.7065L205.09 63.773C206.75 63.6166 208.404 64.1219 209.693 65.1789C210.982 66.2359 211.801 67.7591 211.973 69.4171L220.787 149.761Z" fill="url(#paint7_linear)"/>
<path d="M108.849 161.257L92.6646 78.4114L207.764 70.4104L216.895 148.84L108.849 161.257Z" fill="white"/>
<path d="M269.441 128.142C269.441 136.151 266.259 143.832 260.595 149.495C254.931 155.158 247.249 158.34 239.239 158.34C231.229 158.34 223.547 155.158 217.883 149.495C212.219 143.832 209.037 136.151 209.037 128.142C209.022 127.373 209.052 126.604 209.128 125.839C209.731 118.058 213.323 110.813 219.152 105.623C224.98 100.432 232.592 97.6991 240.391 97.9969C248.191 98.2947 255.572 101.6 260.988 107.22C266.404 112.84 269.433 120.338 269.441 128.142V128.142Z" fill="#68E1FD"/>
<path opacity="0.14" d="M226.541 141.859C225.547 146.221 226.766 150.89 225.872 155.224C218.898 151.772 213.518 145.771 210.844 138.464C210.697 136.96 210.737 135.443 210.961 133.949C211.301 132.361 211.316 130.72 211.006 129.126C210.574 127.928 209.939 126.813 209.128 125.83C209.466 121.412 210.774 117.122 212.96 113.267C215.145 109.411 218.154 106.085 221.772 103.525C221.808 103.728 221.808 103.936 221.772 104.139L220.48 109.892C220.733 111.595 220.733 113.326 220.48 115.03C220.341 115.88 220.018 116.689 219.534 117.401C219.051 118.114 218.418 118.713 217.681 119.157C217.12 119.385 216.576 119.653 216.055 119.96C215.558 120.371 215.141 120.87 214.827 121.432C214.002 122.598 213.391 123.901 213.02 125.279C212.837 125.971 212.828 126.696 212.995 127.392C213.162 128.087 213.5 128.73 213.978 129.262L222.395 127.627C223.298 127.456 224.346 127.338 224.951 128.007C225.556 128.675 225.222 130.057 225.385 131.122C225.583 132.486 226.793 133.461 227.353 134.734C228.284 136.965 227.101 139.475 226.541 141.859Z" fill="#020202"/>
<path opacity="0.14" d="M269.441 128.142C269.446 132.71 268.414 137.219 266.42 141.329C264.427 145.438 261.525 149.041 257.935 151.865C257.521 151.587 257.165 151.231 256.887 150.818C256.431 150.141 256.263 149.311 256.419 148.51C256.574 147.709 257.042 147.003 257.718 146.546V146.546C257.212 146.808 255.216 146.158 254.62 146.058L251.513 145.58C250.023 145.354 247.422 145.444 246.555 143.945C246.457 143.739 246.339 143.542 246.202 143.358C246.022 143.167 245.804 143.016 245.561 142.916C244.658 142.455 243.529 141.941 243.303 140.92C243.15 140.18 243.52 139.331 243.141 138.663C243.014 138.464 242.834 138.301 242.716 138.094C242.584 137.787 242.533 137.45 242.57 137.118C242.606 136.786 242.728 136.468 242.924 136.197C244.234 133.904 246.952 132.802 249.553 132.359C252.154 131.917 254.846 131.989 257.384 131.249C258.938 130.644 260.535 130.155 262.161 129.786C263.064 129.659 264.202 129.569 264.537 128.711C264.726 128.232 264.537 127.663 264.735 127.176C264.808 126.968 264.943 126.778 265.024 126.571C265.124 126.257 265.095 125.917 264.945 125.624C264.794 125.331 264.534 125.11 264.221 125.009C264.144 124.982 264.066 124.964 263.986 124.954C264.193 124.385 264.365 123.663 263.923 123.257C263.766 123.141 263.585 123.065 263.393 123.035C263.201 123.005 263.004 123.022 262.821 123.085C261.737 123.365 260.951 124.277 260.039 124.891C257.022 127.031 252.895 126.273 250.375 123.753C249.964 123.394 249.671 122.918 249.535 122.39C249.5 121.94 249.605 121.492 249.834 121.104C250.064 120.716 250.407 120.408 250.818 120.222C251.641 119.868 252.531 119.692 253.428 119.708L252.434 113.161C247.413 114.506 245.372 109.729 244.658 105.756C243.945 101.782 246.762 100.337 250.402 100.094C256.017 102.329 260.832 106.197 264.226 111.197C267.62 116.197 269.436 122.099 269.441 128.142V128.142Z" fill="#020202"/>
<path d="M124.826 130.427C125.729 138.554 125.784 146.781 127.238 154.809C127.572 156.615 128.141 158.674 129.749 159.586C131.034 160.146 132.467 160.273 133.831 159.947C142.418 158.769 150.774 156.277 158.605 152.56C156.332 141.787 152.976 131.27 148.589 121.171C147.441 118.552 146.186 115.897 144.145 113.892C141.047 110.858 136.757 109.901 132.639 109.088C130.498 108.663 128.322 108.374 126.199 107.833C124.889 107.498 121.168 105.313 120.085 105.521C116.472 106.198 120.085 111.905 120.988 114.118C123.029 119.346 124.321 124.837 124.826 130.427V130.427Z" fill="url(#paint8_linear)"/>
<path d="M200.548 102.974L114.467 111.129L112.272 101.069L198.362 92.9053L200.548 102.974Z" fill="#68E1FD"/>
<path d="M200.548 102.974L114.467 111.129L112.272 101.069L198.362 92.9053L200.548 102.974Z" fill="url(#paint9_linear)"/>
<path d="M191.263 97.0773C197.91 96.3639 204.35 100.599 207.908 106.252C211.467 111.905 212.424 114.642 212.876 121.306C213.02 123.473 213.201 125.875 214.799 127.347C217.464 129.795 221.627 127.889 225.114 126.932C233.378 124.656 242.978 129.497 246.067 137.498C249.084 145.309 244.766 156.904 251.63 161.708C257.745 165.971 274.21 155.685 279.367 146.429C279.367 146.429 280.866 166.756 264.817 176.916C241 191.996 196.357 197.857 191.66 197.351C183.848 196.494 175.322 193.784 171.583 186.876C167.844 179.968 170.264 171.281 170.264 163.307C170.264 158.719 168.196 152.976 163.608 152.876C160.176 152.795 157.692 156.064 156.094 159.098C154.495 162.133 152.824 165.627 149.564 166.711C146.656 167.677 143.35 166.242 141.354 163.921C139.358 161.6 138.446 158.502 137.832 155.531C135.709 145.11 136.676 134.283 134.969 123.78C134.319 119.789 133.162 115.698 130.453 112.709C127.743 109.72 121.376 105.295 116.517 105.485L191.263 97.0773Z" fill="#68E1FD"/>
<path d="M191.263 97.0773C197.91 96.3639 204.35 100.599 207.908 106.252C211.467 111.905 212.424 114.642 212.876 121.306C213.02 123.473 213.201 125.875 214.799 127.347C217.464 129.795 221.627 127.889 225.114 126.932C233.378 124.656 242.978 129.497 246.067 137.498C248.578 144 247.079 151.296 249.508 157.807C250.917 161.6 253.184 162.051 257.131 161.771C260.979 161.404 264.661 160.027 267.806 157.78C272.53 154.52 276.16 149.942 279.719 145.435C278.879 150.989 279.023 156.76 277.136 162.042C274.02 170.784 265.937 176.708 257.871 181.304C244.154 189.107 229.278 194.668 213.806 197.776C206.581 199.239 199.012 198.11 191.697 197.315C183.884 196.412 175.358 193.703 171.619 186.84C167.88 179.977 170.31 171.244 170.337 163.271C170.337 158.683 168.268 152.94 163.68 152.84C160.248 152.759 157.765 156.028 156.166 159.062C154.567 162.097 152.897 165.591 149.636 166.675C146.728 167.641 143.422 166.205 141.426 163.885C139.43 161.564 138.518 158.466 137.904 155.495C135.782 145.074 136.748 134.247 135.041 123.744C134.391 119.753 133.235 115.617 130.525 112.673C127.816 109.729 121.448 105.259 116.589 105.449L191.263 97.0773Z" fill="url(#paint10_linear)"/>
<path d="M219.324 128.458L163.193 149.68C163.193 149.68 160.095 150.429 156.166 159.098C152.237 167.768 138.229 170.838 137.516 143.169C136.802 115.499 135.339 117.251 131.826 111.508L212.713 119.509C212.713 119.509 212.18 130.49 219.324 128.458Z" fill="url(#paint11_linear)"/>
<path d="M149.519 110.027L191.931 105.503" stroke="#473F47" stroke-width="2" stroke-linecap="round" stroke-linejoin="round"/>
<path d="M154.369 123.609L196.781 119.085" stroke="#473F47" stroke-width="2" stroke-linecap="round" stroke-linejoin="round"/>
<path d="M156.41 132.666L198.831 128.142" stroke="#473F47" stroke-width="2" stroke-linecap="round" stroke-linejoin="round"/>
<path d="M185.844 113.486L194.081 112.61" stroke="#473F47" stroke-width="2" stroke-linecap="round" stroke-linejoin="round"/>
<path d="M169.361 115.247L180.524 114.055" stroke="#473F47" stroke-width="2" stroke-linecap="round" stroke-linejoin="round"/>
<path d="M151.659 117.134L161.63 116.068" stroke="#473F47" stroke-width="2" stroke-linecap="round" stroke-linejoin="round"/>
<path d="M188.274 150.727L229.801 135.312" stroke="#473F47" stroke-width="2" stroke-linecap="round" stroke-linejoin="round"/>
<path d="M191.642 164.228L233.17 148.813" stroke="#473F47" stroke-width="2" stroke-linecap="round" stroke-linejoin="round"/>
<path d="M192.735 173.529L234.272 158.114" stroke="#473F47" stroke-width="2" stroke-linecap="round" stroke-linejoin="round"/>
<path d="M223.127 145.462L231.183 142.473" stroke="#473F47" stroke-width="2" stroke-linecap="round" stroke-linejoin="round"/>
<path d="M206.987 151.45L217.915 147.395" stroke="#473F47" stroke-width="2" stroke-linecap="round" stroke-linejoin="round"/>
<path d="M189.655 157.888L199.419 154.258" stroke="#473F47" stroke-width="2" stroke-linecap="round" stroke-linejoin="round"/>
<path opacity="0.45" d="M275.465 151.567C275.465 151.567 236.629 186.226 210.437 182.532C210.437 182.532 188.915 206.833 180.479 192.61C172.044 178.387 186.521 169.231 186.521 169.231L249.463 157.807C249.463 157.807 253.635 171.849 275.465 151.567Z" fill="url(#paint12_linear)"/>
<path d="M84.8522 208.928C84.9335 209.976 86.4237 209.994 88.1127 209.832C89.8016 209.669 89.35 210.066 91.7253 210.093C94.1006 210.12 94.9135 209.344 95.0309 209.01C95.1483 208.676 93.9923 208.459 92.773 208.161L92.3033 208.043C90.9305 207.691 90.0183 206.662 88.8442 205.768C87.6701 204.874 86.2973 201.831 86.2973 201.831L83.0549 201.686C83.0549 201.686 84.4187 204.449 84.9335 205.641C85.1413 206.367 85.1413 207.137 84.9335 207.863C84.8613 208.213 84.834 208.571 84.8522 208.928V208.928Z" fill="#FFB27D"/>
<path d="M88.0765 209.795C89.7654 209.597 89.3139 210.03 91.6892 210.057C94.0645 210.084 94.8774 209.308 94.9948 208.974C95.1122 208.639 93.9561 208.423 92.7369 208.125C91.6545 208.64 90.4536 208.855 89.2597 208.748C87.6701 208.585 86.0534 207.926 84.9606 207.845C84.872 208.205 84.8325 208.576 84.8432 208.947C84.9335 209.976 86.4237 209.994 88.0765 209.795Z" fill="#473F47"/>
<path d="M63.3118 207.863L63.664 208.043C65.1177 208.687 66.6299 209.189 68.1798 209.543C68.6869 209.69 69.219 209.73 69.7423 209.66C70.0691 209.596 70.3775 209.46 70.6455 209.263C70.7719 209.163 70.8984 209.01 70.8261 208.874C70.8027 208.823 70.7651 208.779 70.7177 208.748C70.0313 208.197 69.1733 208.025 68.4508 207.529C67.7282 207.032 67.1502 206.463 66.4819 205.957C65.362 205.1 66.4819 200.052 66.4819 200.052L62.9325 199.708C62.9325 199.708 63.095 203.962 63.095 205.885C63.095 206.463 62.6073 207.24 63.095 207.691C63.1567 207.761 63.2301 207.819 63.3118 207.863V207.863Z" fill="#FFB27D"/>
<path d="M65.7955 209.976C66.44 210.268 67.1039 210.516 67.7824 210.717C68.4394 210.944 69.1283 211.066 69.8236 211.078C70.5259 211.097 71.2129 210.871 71.7654 210.437C71.8397 210.387 71.9024 210.321 71.9491 210.245C71.9959 210.169 72.0256 210.083 72.0363 209.994C72.0254 209.838 71.9653 209.689 71.8647 209.57C71.5368 209.106 71.1074 208.723 70.6093 208.45C70.3474 208.323 70.1939 208.45 69.941 208.585C69.6488 208.703 69.3465 208.793 69.0378 208.856C67.9767 209.074 66.8784 209.028 65.8391 208.723C64.7998 208.417 63.8514 207.862 63.077 207.104C63.077 207.104 63.0137 207.023 62.9686 207.014C62.9234 207.005 62.7879 207.104 62.7699 207.213C62.729 207.382 62.724 207.557 62.7551 207.728C62.7862 207.9 62.8528 208.062 62.9505 208.206C63.1193 208.437 63.3308 208.633 63.5737 208.784C64.2744 209.252 65.0184 209.651 65.7955 209.976Z" fill="#473F47"/>
<path d="M73.0118 121.92C73.0916 121.361 73.1218 120.796 73.1021 120.231C73.0947 119.648 72.946 119.074 72.6686 118.561C72.4789 118.218 71.9551 117.902 71.8196 117.585C71.3202 116.593 70.6147 115.719 69.7503 115.021C68.8859 114.324 67.8824 113.819 66.807 113.54C65.2258 113.324 63.6157 113.539 62.1467 114.163C61.7596 114.263 61.3969 114.442 61.081 114.687C60.8128 114.959 60.6064 115.285 60.4758 115.644C60.1258 116.401 59.8242 117.179 59.5727 117.974C58.8949 116.957 57.9601 116.138 56.8632 115.599C56.2192 115.385 55.531 115.341 54.8649 115.471C54.1989 115.6 53.5775 115.899 53.0609 116.339C52.5544 116.786 52.1419 117.329 51.8473 117.937C51.5527 118.545 51.3819 119.205 51.3449 119.879C51.3829 120.748 51.3162 121.618 51.1462 122.471C50.9753 122.968 50.6707 123.407 50.266 123.742C49.8612 124.076 49.372 124.293 48.8521 124.367C49.3538 125.118 50.0641 125.705 50.8954 126.056C51.7268 126.407 52.6428 126.508 53.5305 126.345C53.2144 127.06 52.8524 127.754 52.4467 128.422C53.5976 128.753 54.8279 128.67 55.9239 128.187C56.6252 127.684 57.1901 127.013 57.5677 126.237L56.818 127.871C58.1186 126.643 57.7935 124.259 59.1482 123.112C59.5366 123.302 59.6811 123.78 59.952 124.115C60.223 124.449 60.8552 124.566 60.9997 124.115C61.0874 125.145 61.4355 126.136 62.0112 126.995C62.4065 127.512 62.9235 127.922 63.516 128.19C64.1086 128.458 64.7583 128.575 65.4071 128.53C65.651 128.53 65.958 128.35 65.8768 128.133C66.4638 128.007 66.7799 127.375 67.3038 127.058C67.9811 126.634 68.8572 126.842 69.652 126.706C70.1279 126.598 70.5764 126.394 70.9696 126.105C71.3627 125.816 71.692 125.449 71.937 125.027C72.517 124.082 72.8837 123.021 73.0118 121.92V121.92Z" fill="#FC682D"/>
<path d="M70.5913 131.447C69.5825 131.997 68.423 132.206 67.2857 132.043C66.3179 131.636 65.5336 130.887 65.082 129.939C65.651 129.822 65.8135 129.036 65.8045 125.686L66.0574 125.74L70.3836 126.589C70.3836 126.589 70.2842 127.952 70.2842 129.235C70.2752 130.309 70.3474 131.33 70.5913 131.447Z" fill="#FFB27D"/>
<path d="M70.3836 126.589C70.3836 126.589 70.2842 127.952 70.2842 129.235C67.8637 129.163 66.5812 126.959 66.0574 125.74L70.3836 126.589Z" fill="#ED975D"/>
<path d="M87.9681 203.51C88.0502 203.781 88.0223 204.073 87.8904 204.323C87.7586 204.573 87.5334 204.761 87.2637 204.847C87.1769 204.86 87.0885 204.86 87.0018 204.847L85.3128 204.928L83.5065 204.982C83.2854 204.991 83.0654 204.947 82.8644 204.855C82.6635 204.762 82.4873 204.623 82.3505 204.449C78.5668 199.663 75.6924 194.224 73.8698 188.402C73.7975 188.167 73.7162 187.924 73.6349 187.68C71.8286 182.56 68.216 176.121 66.3103 170.296C66.0032 169.393 65.7323 168.49 65.4794 167.677C65.4071 167.406 65.3258 167.145 65.2536 166.892C64.1625 163.117 63.4337 159.246 63.077 155.333L76.9495 155.441C79.3168 171.736 83.0018 187.811 87.9681 203.51V203.51Z" fill="#473F47"/>
<path d="M75.0077 147.485C75.0077 154.087 75.9741 156.913 75.9741 156.913C71.8785 158.732 67.2644 159.014 62.9776 157.708L57.1341 156.371C57.2515 156.1 58.2992 151.657 58.4166 151.414C59.9069 148.208 61.0358 146.808 61.2164 145.824C61.5173 143.997 61.575 142.139 61.388 140.297C61.1068 137.354 60.5319 134.447 59.672 131.619C61.6221 131.093 63.535 130.439 65.3981 129.659C66.2465 130.417 67.3496 130.826 68.4869 130.806C69.8958 130.806 70.3474 130.174 70.2932 129.515C71.7925 130.346 73.0027 131.131 73.0027 131.131C74.2762 133.344 76.8592 135.493 77.0399 138.888C77.0579 139.719 75.0077 147.305 75.0077 147.485Z" fill="white"/>
<path d="M63.077 148.217C62.4718 149.075 61.2706 154.294 58.4166 154.953C59.9069 151.233 61.0358 149.598 61.2164 148.461C61.5173 146.334 61.5749 144.18 61.388 142.04C62.3544 140.342 63.077 139.177 63.077 139.177C63.1582 138.906 64.6123 134.382 65.082 138.428C65.3162 141.812 64.623 145.197 63.077 148.217Z" fill="#68E1FD"/>
<path d="M71.1874 127.808C71.1874 127.808 65.4703 127.898 65.4613 124.34C65.4523 120.782 64.7207 118.389 68.3695 118.172C72.0183 117.956 72.7408 119.319 73.0298 120.511C73.3188 121.703 72.7227 127.691 71.1874 127.808Z" fill="#FFB27D"/>
<path d="M70.9796 118.091C70.9796 118.091 69.4081 122.272 67.0057 122.886C64.6033 123.5 63.5647 122.886 63.5647 122.886C64.7483 121.844 65.5335 120.424 65.7864 118.868C65.7864 118.868 69.7965 116.095 70.9796 118.091Z" fill="#FC682D"/>
<path d="M70.5913 118.425C71.205 118.911 71.702 119.528 72.0454 120.231C72.3344 121.134 72.4608 123.004 73.0027 122.941C73.0027 122.941 74.1859 120.105 72.8582 118.498C71.5306 116.89 70.5913 118.425 70.5913 118.425Z" fill="#FC682D"/>
<path d="M82.4769 150.041L86.7669 157.581L85.3761 158.484L79.5507 152.244L82.4769 150.041Z" fill="#FFB27D"/>
<path d="M71.079 130.508C71.079 130.508 74.4478 131.113 75.7483 132.856C77.0489 134.599 81.0409 147.305 81.8537 148.506C82.6666 149.707 83.2898 150.7 83.2898 150.7C82.5379 151.631 81.5489 152.343 80.4267 152.759C78.8643 153.184 71.079 130.508 71.079 130.508Z" fill="#68E1FD"/>
<path d="M70.2752 129.515C70.2752 129.515 73.5898 137.687 73.6891 139.349C73.7885 141.01 74.0775 166.44 74.0775 166.44C74.0775 166.44 73.8788 167.605 76.1186 167.117C77.1161 166.988 78.0774 166.659 78.9455 166.151C78.9455 166.151 76.805 150.474 77.3831 145.029C77.9611 139.584 72.8673 130.689 72.8673 130.689L70.2752 129.515Z" fill="#68E1FD"/>
<path d="M85.3128 205L83.3801 205.054C83.2081 205.063 83.0364 205.031 82.8793 204.96C82.7223 204.89 82.5843 204.783 82.4769 204.648C78.6471 199.83 75.7385 194.347 73.8969 188.474C73.8246 188.24 73.7433 187.996 73.662 187.752C71.8557 182.632 68.2431 176.193 66.3374 170.368C66.0303 169.465 65.7594 168.562 65.5065 167.75C65.4342 167.479 65.3529 167.217 65.2807 166.964L67.3218 165.42C67.3218 165.42 73.4543 175.353 75.351 184.691C77.0037 192.773 83.6059 202.544 85.3128 205Z" fill="url(#paint13_linear)"/>
<path d="M67.5386 185.531C67.5386 189.829 67.367 199.41 66.8432 204.088C66.8229 204.297 66.7255 204.49 66.5702 204.63C66.4148 204.77 66.2126 204.848 66.0032 204.847H63.1853C63.0574 204.843 62.9343 204.797 62.836 204.715C62.7376 204.633 62.6698 204.52 62.6434 204.395C61.2074 197.071 60.1778 190.994 59.4282 185.738C58.796 181.331 58.236 177.611 57.8025 174.315C57.369 171.019 57.0619 168.31 56.9535 165.998V163.93L68.9385 162.765C68.7488 170.685 67.5205 182.894 67.5386 185.531Z" fill="#473F47"/>
<path d="M64.5943 204.847H63.2847C63.1298 204.844 62.9803 204.789 62.8606 204.691C62.7409 204.592 62.658 204.456 62.6254 204.305C61.1984 197.017 60.1778 190.967 59.4282 185.738C58.796 181.331 58.236 177.611 57.8025 174.315C57.369 171.019 57.0619 168.31 56.9535 165.998L61.3519 168.589C61.3519 168.589 58.5521 169.574 59.6178 177.069C60.6836 184.564 63.0589 203.781 64.5943 204.847Z" fill="url(#paint14_linear)"/>
<path d="M65.1181 165.916C65.1181 165.916 64.2782 168.969 61.3519 168.58C58.9259 168.118 56.5555 167.4 54.2801 166.44C54.2801 166.44 55.5265 162.494 57.08 157.31C58.9585 151.043 61.2887 142.961 62.3815 137.859C62.643 136.712 62.842 135.551 62.9776 134.382L65.3981 129.677C65.3981 129.677 69.0108 137.805 69.2094 139.827C69.4081 141.85 65.1181 165.916 65.1181 165.916Z" fill="#68E1FD"/>
<path d="M64.9917 144.117C64.8562 147.422 64.0885 153.852 57.1341 157.283H57.08C58.9585 151.016 61.2887 142.934 62.3815 137.832C63.6911 139.764 65.0639 142.293 64.9917 144.117Z" fill="url(#paint15_linear)"/>
<path d="M65.3981 129.677C65.3981 129.677 59.4733 130.102 58.0463 133.289C56.6193 136.477 56.6826 140.667 56.818 144.063C56.8993 146.122 56.9535 148.262 57.9199 150.131C59.2207 152.298 60.8165 154.274 62.6615 156.001C62.9356 156.338 63.2939 156.597 63.7001 156.751C64.1555 156.839 64.6274 156.779 65.0459 156.579C66.0184 156.192 66.8985 155.604 67.6289 154.854C67.3309 154.592 67.2135 153.951 66.9877 153.563C66.6512 153.013 66.3496 152.443 66.0845 151.856C65.5419 150.673 64.939 149.519 64.2782 148.397C63.5997 147.494 62.9956 146.536 62.4718 145.535C62.2431 145.021 62.1302 144.464 62.1412 143.902C62.1521 143.34 62.2866 142.788 62.5351 142.284C62.9211 141.023 63.2228 139.738 63.4382 138.437C64.0885 135.52 64.7388 132.594 65.3981 129.677Z" fill="#68E1FD"/>
<path fill-rule="evenodd" clip-rule="evenodd" d="M97.632 198.264C96.3856 197.704 95.3741 198.417 95.3741 199.862C95.405 200.608 95.6294 201.333 96.0252 201.967C96.4211 202.6 96.9748 203.119 97.632 203.474C98.8784 204.034 99.8809 203.321 99.8809 201.876C99.8518 201.13 99.6291 200.405 99.2348 199.772C98.8405 199.139 98.2881 198.619 97.632 198.264V198.264Z" fill="#68E1FD"/>
<path fill-rule="evenodd" clip-rule="evenodd" d="M96.9095 198.065C96.4365 198.039 95.9632 198.109 95.5186 198.273C95.2386 198.399 97.1082 199.465 96.9095 198.065Z" fill="#68E1FD"/>
<path fill-rule="evenodd" clip-rule="evenodd" d="M97.6139 203.781C98.0833 203.811 98.5537 203.743 98.9958 203.582C99.2758 203.456 97.3882 202.39 97.6139 203.781Z" fill="#68E1FD"/>
<path fill-rule="evenodd" clip-rule="evenodd" d="M96.8101 198.363C95.5638 197.803 94.5612 198.516 94.5612 199.961C94.5886 200.707 94.8105 201.433 95.205 202.067C95.5995 202.7 96.1528 203.22 96.8101 203.573C98.0565 204.142 99.068 203.429 99.068 201.984C99.0369 201.237 98.8125 200.51 98.4168 199.876C98.021 199.241 97.4675 198.72 96.8101 198.363V198.363Z" fill="#68E1FD"/>
<path fill-rule="evenodd" clip-rule="evenodd" d="M96.8101 200.214C96.4489 200.043 96.1508 200.259 96.1508 200.684C96.1577 200.903 96.2223 201.118 96.338 201.305C96.4537 201.492 96.6165 201.645 96.8101 201.749C97.1804 201.912 97.4785 201.704 97.4785 201.28C97.4707 201.059 97.4047 200.844 97.2874 200.657C97.1701 200.47 97.0054 200.317 96.8101 200.214V200.214Z" fill="#68E1FD"/>
<path fill-rule="evenodd" clip-rule="evenodd" d="M82.6034 192.466L105.724 208.603L105.426 209.226L82.3053 193.08L82.6034 192.466Z" fill="#68E1FD"/>
<path fill-rule="evenodd" clip-rule="evenodd" d="M85.5296 191.59L108.651 207.727L108.362 208.351L85.2316 192.204L85.5296 191.59Z" fill="#68E1FD"/>
<path fill-rule="evenodd" clip-rule="evenodd" d="M88.7268 189.441L111.848 205.578L111.55 206.183L88.4288 190.055L88.7268 189.441Z" fill="#68E1FD"/>
<path fill-rule="evenodd" clip-rule="evenodd" d="M92.0233 188.628L115.144 204.765L114.846 205.389L91.7253 189.242L92.0233 188.628Z" fill="#68E1FD"/>
<path fill-rule="evenodd" clip-rule="evenodd" d="M111.559 207.989C110.312 207.429 109.31 208.143 109.31 209.588C109.339 210.333 109.562 211.058 109.956 211.692C110.35 212.325 110.903 212.845 111.559 213.2C112.805 213.76 113.817 213.046 113.817 211.602C113.786 210.855 113.561 210.13 113.166 209.497C112.77 208.864 112.216 208.344 111.559 207.989Z" fill="#68E1FD"/>
<path fill-rule="evenodd" clip-rule="evenodd" d="M110.863 207.791C110.39 207.764 109.917 207.835 109.472 207.998C109.192 208.125 111.08 209.19 110.863 207.791Z" fill="#68E1FD"/>
<path fill-rule="evenodd" clip-rule="evenodd" d="M111.559 213.507C112.031 213.536 112.504 213.469 112.95 213.308C113.239 213.182 111.351 212.116 111.559 213.507Z" fill="#68E1FD"/>
<path fill-rule="evenodd" clip-rule="evenodd" d="M110.764 208.089C109.527 207.529 108.515 208.242 108.515 209.687C108.542 210.433 108.764 211.159 109.159 211.792C109.553 212.426 110.107 212.945 110.764 213.299C112.01 213.868 113.022 213.155 113.022 211.71C112.991 210.963 112.766 210.236 112.371 209.601C111.975 208.967 111.421 208.446 110.764 208.089Z" fill="#68E1FD"/>
<path fill-rule="evenodd" clip-rule="evenodd" d="M110.764 209.94C110.403 209.768 110.105 209.985 110.105 210.409C110.112 210.629 110.176 210.843 110.292 211.03C110.408 211.217 110.57 211.371 110.764 211.475C111.134 211.638 111.432 211.475 111.432 211.005C111.425 210.785 111.359 210.57 111.241 210.383C111.124 210.196 110.959 210.043 110.764 209.94Z" fill="#68E1FD"/>
<path fill-rule="evenodd" clip-rule="evenodd" d="M111.297 206.996C111.291 206.847 111.236 206.705 111.139 206.592C111.042 206.478 110.91 206.401 110.764 206.373C110.708 206.361 110.651 206.36 110.595 206.37C110.539 206.381 110.485 206.402 110.437 206.433C110.389 206.464 110.348 206.504 110.316 206.551C110.284 206.598 110.261 206.651 110.249 206.707C110.245 206.743 110.245 206.779 110.249 206.815V210.608C110.254 210.756 110.308 210.897 110.403 211.01C110.498 211.123 110.629 211.201 110.773 211.231C110.826 211.246 110.882 211.25 110.937 211.243C110.992 211.236 111.045 211.219 111.093 211.191C111.141 211.163 111.183 211.126 111.217 211.082C111.25 211.037 111.274 210.987 111.288 210.933C111.297 210.889 111.297 210.843 111.288 210.798L111.297 206.996Z" fill="#68E1FD"/>
<path fill-rule="evenodd" clip-rule="evenodd" d="M97.343 197.279C97.3364 197.13 97.2806 196.987 97.1842 196.872C97.0878 196.758 96.9563 196.679 96.8101 196.647C96.7532 196.635 96.6945 196.635 96.6373 196.645C96.5802 196.656 96.5257 196.678 96.4771 196.71C96.4284 196.742 96.3865 196.783 96.3538 196.831C96.321 196.879 96.2981 196.933 96.2863 196.99C96.2818 197.023 96.2818 197.057 96.2863 197.09V200.882C96.2917 201.031 96.3473 201.174 96.4441 201.287C96.5408 201.4 96.673 201.477 96.8191 201.505C96.8725 201.52 96.9284 201.525 96.9834 201.518C97.0384 201.511 97.0914 201.493 97.1394 201.465C97.1874 201.437 97.2293 201.4 97.2627 201.356C97.2961 201.312 97.3203 201.261 97.334 201.207C97.3427 201.163 97.3427 201.117 97.334 201.072L97.343 197.279Z" fill="#68E1FD"/>
<path fill-rule="evenodd" clip-rule="evenodd" d="M98.0655 169.52L98.8061 190.931C98.8069 191.015 98.8371 191.096 98.8916 191.161C98.946 191.225 99.0212 191.268 99.1042 191.283C99.1374 191.285 99.1708 191.281 99.2024 191.271C99.234 191.26 99.2633 191.244 99.2884 191.222C99.3136 191.2 99.3342 191.173 99.3491 191.144C99.364 191.114 99.3728 191.081 99.3751 191.048V191.003L98.6435 169.592C98.6395 169.509 98.6081 169.429 98.5542 169.365C98.5004 169.302 98.427 169.257 98.3455 169.24C98.3122 169.236 98.2786 169.239 98.2465 169.248C98.2144 169.257 98.1844 169.273 98.1584 169.294C98.1323 169.315 98.1107 169.341 98.0948 169.37C98.0788 169.4 98.0689 169.432 98.0655 169.465V169.52ZM116.598 182.614L112.986 200.946C112.971 201.029 112.986 201.115 113.027 201.189C113.068 201.263 113.133 201.32 113.212 201.352C113.241 201.365 113.273 201.372 113.305 201.372C113.338 201.372 113.369 201.366 113.399 201.353C113.429 201.34 113.456 201.322 113.478 201.298C113.5 201.275 113.517 201.247 113.528 201.216C113.532 201.199 113.532 201.18 113.528 201.162L117.14 182.84C117.162 182.76 117.156 182.676 117.123 182.6C117.09 182.524 117.033 182.462 116.96 182.424C116.901 182.399 116.834 182.397 116.774 182.419C116.714 182.44 116.664 182.484 116.635 182.542C116.631 182.562 116.631 182.584 116.635 182.605L116.598 182.614ZM103.15 173.105L101.814 193.107C101.809 193.192 101.833 193.276 101.882 193.345C101.931 193.414 102.003 193.464 102.085 193.486C102.149 193.5 102.217 193.488 102.272 193.452C102.328 193.417 102.368 193.361 102.383 193.297L103.719 173.285C103.724 173.201 103.7 173.117 103.651 173.048C103.602 172.979 103.53 172.929 103.448 172.906C103.384 172.892 103.316 172.905 103.261 172.94C103.205 172.976 103.165 173.031 103.15 173.096C103.15 173.099 103.15 173.102 103.15 173.105V173.105ZM111.767 179.191L108.488 197.776C108.478 197.859 108.496 197.943 108.538 198.014C108.58 198.086 108.645 198.142 108.723 198.173C108.779 198.199 108.844 198.202 108.902 198.182C108.961 198.162 109.01 198.12 109.039 198.065C109.043 198.038 109.043 198.01 109.039 197.984L112.308 179.417C112.321 179.334 112.306 179.249 112.265 179.175C112.224 179.102 112.16 179.044 112.083 179.011C112.053 178.998 112.021 178.991 111.989 178.991C111.957 178.99 111.925 178.997 111.895 179.009C111.865 179.022 111.839 179.041 111.817 179.064C111.794 179.088 111.777 179.116 111.767 179.146C111.763 179.167 111.763 179.188 111.767 179.209V179.191ZM105.155 195.446C105.147 195.53 105.168 195.614 105.214 195.685C105.26 195.755 105.328 195.808 105.408 195.834C105.466 195.855 105.529 195.852 105.585 195.827C105.64 195.802 105.684 195.756 105.706 195.699C105.711 195.672 105.711 195.645 105.706 195.618L108.127 176.446C108.131 176.378 108.117 176.309 108.085 176.249C108.053 176.188 108.005 176.138 107.946 176.103C107.917 176.091 107.885 176.086 107.853 176.087C107.822 176.088 107.79 176.096 107.762 176.109C107.733 176.123 107.707 176.142 107.686 176.166C107.665 176.189 107.649 176.217 107.639 176.247C107.635 176.271 107.635 176.296 107.639 176.32L105.155 195.446Z" fill="#68E1FD"/>
<path fill-rule="evenodd" clip-rule="evenodd" d="M93.92 167.072L122.632 187.499L117.213 203.131L95.3018 187.59L93.92 167.072ZM94.5432 188.402L117.267 204.576C117.316 204.619 117.374 204.652 117.437 204.672C117.499 204.693 117.565 204.701 117.63 204.696C117.696 204.691 117.76 204.673 117.818 204.643C117.877 204.613 117.929 204.572 117.971 204.522L118.034 204.422L123.887 187.599C123.931 187.451 123.927 187.293 123.877 187.147C123.827 187.002 123.732 186.875 123.607 186.786L93.4955 165.42C93.4459 165.377 93.3882 165.344 93.3258 165.323C93.2634 165.303 93.1975 165.295 93.132 165.3C93.0664 165.305 93.0026 165.323 92.944 165.353C92.8855 165.383 92.8335 165.424 92.791 165.474L92.7278 165.573C92.6843 165.673 92.6628 165.781 92.6646 165.889L94.209 187.842C94.2127 187.96 94.245 188.075 94.3033 188.177C94.3615 188.28 94.4439 188.366 94.5432 188.429V188.402Z" fill="#68E1FD"/>
<path fill-rule="evenodd" clip-rule="evenodd" d="M99.5196 191.355L82.8292 197.397L82.5311 196.674L99.2306 190.633L99.5196 191.355Z" fill="#68E1FD"/>
<path fill-rule="evenodd" clip-rule="evenodd" d="M102.536 193.595L85.8367 199.627L85.5477 198.923L102.247 192.881L102.536 193.595Z" fill="#68E1FD"/>
<path fill-rule="evenodd" clip-rule="evenodd" d="M105.688 195.681L88.9978 201.722L88.6997 201.009L105.399 194.976L105.688 195.681Z" fill="#68E1FD"/>
<path fill-rule="evenodd" clip-rule="evenodd" d="M109.581 198.444L92.8814 204.476L92.5923 203.754L109.292 197.731L109.581 198.444Z" fill="#68E1FD"/>
<path fill-rule="evenodd" clip-rule="evenodd" d="M113.591 201.469L96.8914 207.511L96.6024 206.797L113.302 200.756L113.591 201.469Z" fill="#68E1FD"/>
<path fill-rule="evenodd" clip-rule="evenodd" d="M79.1804 193.261L73.7162 174.233L92.764 166.838L94.1729 187.427L79.1804 193.261ZM95.347 187.942L93.8387 165.98C93.8302 165.813 93.7643 165.655 93.6524 165.532C93.5405 165.408 93.3893 165.327 93.2246 165.302C93.1439 165.299 93.0635 165.315 92.9897 165.348L72.7589 173.204C72.6322 173.265 72.5325 173.371 72.4792 173.501C72.4258 173.631 72.4225 173.776 72.4699 173.908L78.2953 194.164C78.33 194.325 78.4229 194.467 78.5563 194.564C78.6896 194.66 78.854 194.705 79.0178 194.687H79.1171L95.0399 188.502C95.1457 188.455 95.2331 188.375 95.2887 188.274C95.3442 188.173 95.3647 188.056 95.347 187.942Z" fill="#68E1FD"/>
<path fill-rule="evenodd" clip-rule="evenodd" d="M89.3771 167.325L91.5085 189.043C91.5142 189.127 91.5489 189.206 91.6065 189.267C91.6642 189.328 91.7413 189.367 91.8246 189.378C91.8594 189.378 91.8939 189.371 91.9258 189.357C91.9577 189.343 91.9864 189.323 92.0102 189.297C92.0339 189.272 92.0521 189.242 92.0637 189.209C92.0753 189.176 92.08 189.141 92.0775 189.107V189.107L89.9551 167.388C89.9478 167.305 89.9126 167.227 89.8552 167.166C89.7979 167.106 89.7216 167.066 89.639 167.054C89.5695 167.054 89.5029 167.082 89.4538 167.131C89.4047 167.18 89.3771 167.247 89.3771 167.316V167.325ZM85.2677 168.933L88.4288 190.263C88.4393 190.345 88.4787 190.421 88.5398 190.477C88.6009 190.533 88.68 190.566 88.7629 190.57C88.7974 190.567 88.831 190.558 88.8619 190.543C88.8928 190.528 88.9204 190.506 88.943 190.48C88.9657 190.454 88.983 190.424 88.9939 190.391C89.0049 190.359 89.0092 190.324 89.0068 190.29C89.0068 190.29 89.0068 190.29 89.0068 190.244L85.8457 168.924C85.8354 168.843 85.7974 168.768 85.7381 168.712C85.6788 168.656 85.6019 168.622 85.5206 168.617C85.4519 168.621 85.3875 168.652 85.3406 168.702C85.2936 168.752 85.2675 168.819 85.2677 168.887C85.2677 168.887 85.2677 168.878 85.2677 168.933ZM78.0424 171.759L81.8989 192.809C81.9077 192.892 81.9464 192.969 82.008 193.026C82.0695 193.082 82.1495 193.114 82.2331 193.116C82.2688 193.112 82.3032 193.1 82.3345 193.082C82.3657 193.064 82.393 193.04 82.4149 193.012C82.4367 192.983 82.4527 192.951 82.4618 192.916C82.4709 192.881 82.473 192.845 82.4679 192.809V192.809L78.6114 171.759C78.5986 171.677 78.5571 171.602 78.4943 171.547C78.4315 171.493 78.3514 171.462 78.2682 171.461C78.2349 171.465 78.2026 171.474 78.1732 171.49C78.1438 171.506 78.1178 171.528 78.0968 171.554C78.0758 171.58 78.0602 171.61 78.0508 171.642C78.0415 171.674 78.0386 171.708 78.0424 171.741C78.0418 171.747 78.0418 171.753 78.0424 171.759V171.759ZM81.8718 170.025C81.9547 170.029 82.0338 170.062 82.0949 170.118C82.1561 170.174 82.1954 170.25 82.206 170.332L85.7283 191.518C85.7377 191.551 85.7402 191.586 85.7357 191.62C85.7311 191.654 85.7196 191.687 85.7018 191.717C85.6841 191.746 85.6604 191.772 85.6324 191.792C85.6043 191.812 85.5724 191.827 85.5386 191.834V191.834C85.4557 191.83 85.3766 191.797 85.3155 191.741C85.2544 191.685 85.215 191.609 85.2045 191.527L81.6821 170.35C81.6725 170.317 81.6695 170.282 81.6734 170.248C81.6773 170.214 81.6879 170.18 81.7047 170.15C81.7215 170.12 81.7441 170.093 81.7712 170.072C81.7984 170.051 81.8295 170.035 81.8628 170.025V170.025H81.8718Z" fill="#68E1FD"/>
<path fill-rule="evenodd" clip-rule="evenodd" d="M94.8051 196.069C94.8196 196.215 94.8826 196.353 94.9841 196.459C95.0856 196.565 95.2196 196.635 95.3651 196.656C95.4202 196.666 95.4769 196.666 95.5319 196.654C95.5868 196.643 95.6389 196.62 95.6851 196.588C95.7313 196.556 95.7707 196.516 95.801 196.468C95.8314 196.421 95.852 196.368 95.8618 196.313C95.8663 196.271 95.8663 196.229 95.8618 196.187L93.2517 158.259C93.2386 158.109 93.1752 157.969 93.0718 157.861C92.9683 157.752 92.8311 157.683 92.6827 157.663C92.6275 157.654 92.5711 157.656 92.5167 157.668C92.4623 157.681 92.4109 157.705 92.3656 157.737C92.3203 157.77 92.2819 157.811 92.2526 157.859C92.2233 157.907 92.2037 157.96 92.195 158.015C92.1859 158.056 92.1859 158.1 92.195 158.141L94.8051 196.069Z" fill="#68E1FD"/>
<path fill-rule="evenodd" clip-rule="evenodd" d="M93.1884 159.08C93.2886 159.035 93.3786 158.97 93.4534 158.889C93.5281 158.808 93.5861 158.713 93.6239 158.61C93.6617 158.507 93.6786 158.397 93.6736 158.287C93.6687 158.177 93.6419 158.069 93.5949 157.97C93.5805 157.932 93.5623 157.896 93.5407 157.861C93.4336 157.626 93.2444 157.437 93.0084 157.331C92.7723 157.224 92.5057 157.208 92.2582 157.283L70.4648 165.745C70.2656 165.836 70.1097 166.001 70.0304 166.205C69.9511 166.409 69.9547 166.636 70.0403 166.838C70.0559 166.879 70.0772 166.919 70.1036 166.955C70.2136 167.188 70.4027 167.376 70.6374 167.483C70.8722 167.59 71.1374 167.611 71.3861 167.542L93.1884 159.08Z" fill="#68E1FD"/>
<path d="M86.3425 157.437C86.3425 157.437 89.0519 158.277 89.5577 159.243C90.0635 160.209 90.2983 162.367 89.9099 162.422C89.5216 162.476 88.4829 160.318 88.1036 160.227C87.7243 160.137 87.2005 159.749 87.2817 160.092C87.363 160.435 87.8056 160.995 87.6611 161.148C87.5166 161.302 86.8121 160.39 86.4237 160.245C86.0354 160.101 85.5748 158.584 85.1412 158.222C84.7077 157.861 86.3425 157.437 86.3425 157.437Z" fill="#68E1FD"/>
<path d="M67.6289 154.258L71.9189 161.79L70.5371 162.72L64.7027 156.462L67.6289 154.258Z" fill="#68E1FD"/>
<path d="M71.5035 161.654C71.7274 161.711 71.9453 161.789 72.1538 161.889C72.609 162.017 73.0416 162.215 73.4362 162.476C74.1174 163.062 74.6629 163.789 75.0348 164.607C75.1515 164.804 75.2226 165.025 75.243 165.253C75.2633 165.481 75.2323 165.711 75.1523 165.925C74.9548 166.199 74.6817 166.41 74.3665 166.531C74.2829 166.576 74.1906 166.604 74.0956 166.612C73.9496 166.59 73.8139 166.524 73.7072 166.422L71.7112 164.752C71.4151 164.537 71.1636 164.267 70.9706 163.957C70.799 163.65 70.7448 163.289 70.5913 162.973C70.4377 162.656 70.1307 162.476 70.3565 162.169C70.5822 161.862 71.1693 161.753 71.5035 161.654Z" fill="#68E1FD"/>
<path fill-rule="evenodd" clip-rule="evenodd" d="M80.2551 201.207C80.2911 201.351 80.3773 201.478 80.4981 201.564C80.619 201.65 80.7666 201.69 80.9144 201.677C81.028 201.663 81.1316 201.606 81.2027 201.516C81.2738 201.426 81.3065 201.312 81.2938 201.198V201.09L71.4583 166.576C71.4192 166.434 71.3322 166.309 71.2121 166.224C71.092 166.138 70.9461 166.097 70.799 166.106C70.6839 166.124 70.5802 166.186 70.5095 166.278C70.4388 166.371 70.4066 166.487 70.4197 166.603V166.702L80.2551 201.207Z" fill="#68E1FD"/>
<path fill-rule="evenodd" clip-rule="evenodd" d="M83.5607 203.998C82.3143 203.429 81.3118 204.142 81.3118 205.587C81.341 206.333 81.5636 207.058 81.9579 207.691C82.3522 208.324 82.9046 208.844 83.5607 209.199C84.8071 209.759 85.8186 209.046 85.8186 207.601C85.7888 206.856 85.5648 206.131 85.1688 205.499C84.7727 204.867 84.2184 204.35 83.5607 203.998Z" fill="#68E1FD"/>
<path fill-rule="evenodd" clip-rule="evenodd" d="M82.8653 203.79C82.3923 203.764 81.919 203.835 81.4744 203.998C81.1944 204.097 83.082 205.19 82.8653 203.79Z" fill="#68E1FD"/>
<path fill-rule="evenodd" clip-rule="evenodd" d="M83.5607 209.515C84.0332 209.549 84.5075 209.482 84.9516 209.317C85.2406 209.181 83.353 208.116 83.5607 209.515Z" fill="#68E1FD"/>
<path fill-rule="evenodd" clip-rule="evenodd" d="M82.7659 204.097C81.5286 203.537 80.517 204.251 80.517 205.696C80.5444 206.441 80.7663 207.167 81.1608 207.801C81.5553 208.434 82.1086 208.954 82.7659 209.308C84.0123 209.877 85.0238 209.163 85.0238 207.718C84.9927 206.971 84.7683 206.245 84.3726 205.61C83.9768 204.975 83.4233 204.454 82.7659 204.097V204.097Z" fill="#68E1FD"/>
<path fill-rule="evenodd" clip-rule="evenodd" d="M82.7659 205.903C82.4047 205.732 82.1066 205.948 82.1066 206.373C82.1135 206.593 82.1781 206.807 82.2938 206.994C82.4095 207.181 82.5723 207.334 82.7659 207.438C83.1362 207.61 83.4343 207.438 83.4343 206.969C83.4265 206.748 83.3606 206.533 83.2432 206.346C83.1259 206.159 82.9612 206.006 82.7659 205.903V205.903Z" fill="#68E1FD"/>
<path fill-rule="evenodd" clip-rule="evenodd" d="M97.5417 213.715C96.3043 213.155 95.2928 213.868 95.2928 215.313C95.3219 216.058 95.5446 216.783 95.9389 217.417C96.3332 218.05 96.8856 218.57 97.5417 218.925C98.788 219.485 99.7996 218.772 99.7996 217.327C99.7687 216.581 99.5443 215.855 99.1484 215.222C98.7526 214.589 98.1989 214.069 97.5417 213.715V213.715Z" fill="#68E1FD"/>
<path fill-rule="evenodd" clip-rule="evenodd" d="M96.8192 213.516C96.3462 213.49 95.8729 213.56 95.4283 213.724C95.1573 213.85 97.0359 214.934 96.8192 213.516Z" fill="#68E1FD"/>
<path fill-rule="evenodd" clip-rule="evenodd" d="M97.5236 219.232C97.996 219.262 98.4693 219.194 98.9145 219.034C99.1945 218.907 97.3069 217.842 97.5236 219.232Z" fill="#68E1FD"/>
<path fill-rule="evenodd" clip-rule="evenodd" d="M96.7288 213.814C95.4825 213.254 94.4709 213.967 94.4709 215.412C94.4992 216.159 94.7225 216.885 95.1186 217.519C95.5147 218.153 96.0699 218.672 96.7288 219.025C97.9752 219.593 98.9777 218.88 98.9777 217.435C98.9501 216.688 98.7282 215.961 98.3338 215.326C97.9394 214.691 97.3862 214.17 96.7288 213.814V213.814Z" fill="#68E1FD"/>
<path fill-rule="evenodd" clip-rule="evenodd" d="M97.2617 212.73C97.2551 212.581 97.1993 212.438 97.1029 212.323C97.0065 212.209 96.875 212.13 96.7288 212.098C96.6731 212.085 96.6152 212.083 96.5586 212.092C96.502 212.101 96.4478 212.121 96.399 212.151C96.3503 212.182 96.3081 212.221 96.2748 212.268C96.2415 212.315 96.2177 212.367 96.205 212.423C96.2005 212.462 96.2005 212.502 96.205 212.541V216.333C96.2116 216.483 96.2674 216.626 96.3638 216.74C96.4602 216.855 96.5917 216.934 96.7379 216.966C96.7948 216.977 96.8535 216.978 96.9107 216.967C96.9678 216.956 97.0223 216.934 97.0709 216.903C97.1196 216.871 97.1615 216.83 97.1942 216.781C97.2269 216.733 97.2499 216.679 97.2617 216.622C97.2662 216.589 97.2662 216.556 97.2617 216.523V212.73Z" fill="#68E1FD"/>
<path fill-rule="evenodd" clip-rule="evenodd" d="M114.313 210.256L95.076 196.548L82.1157 201.487L101.299 215.331L114.313 210.256ZM101.028 216.333L80.7699 201.722C80.6476 201.644 80.5586 201.523 80.5202 201.383C80.4819 201.243 80.4968 201.093 80.5622 200.964C80.6076 200.886 80.6775 200.826 80.7609 200.792L94.8141 195.437C94.9029 195.409 94.9971 195.404 95.0884 195.421C95.1797 195.439 95.2654 195.478 95.338 195.536L115.659 209.985C115.781 210.063 115.87 210.184 115.909 210.324C115.947 210.464 115.932 210.614 115.867 210.744C115.82 210.829 115.742 210.893 115.65 210.924L101.561 216.415C101.472 216.446 101.377 216.455 101.284 216.441C101.191 216.427 101.103 216.39 101.028 216.333V216.333Z" fill="#68E1FD"/>
<path fill-rule="evenodd" clip-rule="evenodd" d="M83.2988 203.005C83.295 202.855 83.24 202.712 83.143 202.598C83.0459 202.485 82.9128 202.408 82.7659 202.381C82.7114 202.368 82.6547 202.366 82.5991 202.374C82.5436 202.383 82.4904 202.402 82.4425 202.432C82.3946 202.461 82.353 202.5 82.3202 202.545C82.2873 202.591 82.2638 202.643 82.2511 202.697C82.2466 202.736 82.2466 202.776 82.2511 202.815V206.608C82.2557 206.756 82.3096 206.899 82.4045 207.014C82.4994 207.128 82.6297 207.208 82.775 207.24C82.8307 207.253 82.8886 207.255 82.9452 207.246C83.0018 207.237 83.056 207.217 83.1048 207.187C83.1535 207.156 83.1957 207.117 83.229 207.07C83.2623 207.023 83.286 206.971 83.2988 206.915C83.3033 206.876 83.3033 206.836 83.2988 206.797V203.005Z" fill="#68E1FD"/>
<path fill-rule="evenodd" clip-rule="evenodd" d="M99.059 198.679L98.77 197.966L84.1116 203.266L84.4007 203.98L99.059 198.679ZM102.076 200.928L87.4172 206.228L87.1282 205.515L101.787 200.214L102.076 200.928ZM105.237 203.014L90.5783 208.314L90.2893 207.601L104.939 202.291L105.228 203.004L105.237 203.014ZM109.129 205.723L94.4709 211.024L94.1819 210.31L108.849 205.063L109.138 205.777L109.129 205.723ZM98.481 214.058L98.192 213.344L112.85 208.043L113.139 208.757L98.481 214.058Z" fill="#68E1FD"/>
<path fill-rule="evenodd" clip-rule="evenodd" d="M111.559 207.989C110.312 207.429 109.31 208.143 109.31 209.588C109.339 210.333 109.562 211.058 109.956 211.692C110.35 212.325 110.903 212.845 111.559 213.2C112.805 213.76 113.817 213.046 113.817 211.602C113.786 210.855 113.561 210.13 113.166 209.497C112.77 208.864 112.216 208.344 111.559 207.989Z" fill="url(#paint16_linear)"/>
<path fill-rule="evenodd" clip-rule="evenodd" d="M110.863 207.791C110.39 207.764 109.917 207.835 109.472 207.998C109.192 208.125 111.08 209.19 110.863 207.791Z" fill="url(#paint17_linear)"/>
<path fill-rule="evenodd" clip-rule="evenodd" d="M111.559 213.507C112.031 213.536 112.504 213.469 112.95 213.308C113.239 213.182 111.351 212.116 111.559 213.507Z" fill="url(#paint18_linear)"/>
<path fill-rule="evenodd" clip-rule="evenodd" d="M110.764 208.089C109.527 207.529 108.515 208.242 108.515 209.687C108.542 210.433 108.764 211.159 109.159 211.792C109.553 212.426 110.107 212.945 110.764 213.299C112.01 213.868 113.022 213.155 113.022 211.71C112.991 210.963 112.766 210.236 112.371 209.601C111.975 208.967 111.421 208.446 110.764 208.089Z" fill="#473F47"/>
<path fill-rule="evenodd" clip-rule="evenodd" d="M110.764 209.94C110.403 209.768 110.105 209.985 110.105 210.409C110.112 210.629 110.176 210.843 110.292 211.03C110.408 211.217 110.57 211.371 110.764 211.475C111.134 211.638 111.432 211.475 111.432 211.005C111.425 210.785 111.359 210.57 111.241 210.383C111.124 210.196 110.959 210.043 110.764 209.94Z" fill="url(#paint19_linear)"/>
<path fill-rule="evenodd" clip-rule="evenodd" d="M111.297 206.996C111.291 206.847 111.236 206.705 111.139 206.592C111.042 206.478 110.91 206.401 110.764 206.373C110.708 206.361 110.651 206.36 110.595 206.37C110.539 206.381 110.485 206.402 110.437 206.433C110.389 206.464 110.348 206.504 110.316 206.551C110.284 206.598 110.261 206.651 110.249 206.707C110.245 206.743 110.245 206.779 110.249 206.815V210.608C110.254 210.756 110.308 210.897 110.403 211.01C110.498 211.123 110.629 211.201 110.773 211.231C110.826 211.246 110.882 211.25 110.937 211.243C110.992 211.236 111.045 211.219 111.093 211.191C111.141 211.163 111.183 211.126 111.217 211.082C111.25 211.037 111.274 210.987 111.288 210.933C111.297 210.889 111.297 210.843 111.288 210.798L111.297 206.996Z" fill="url(#paint20_linear)"/>
<path fill-rule="evenodd" clip-rule="evenodd" d="M98.0655 169.52L98.8061 190.931C98.8069 191.015 98.8371 191.096 98.8916 191.161C98.946 191.225 99.0212 191.268 99.1042 191.283C99.1374 191.285 99.1708 191.281 99.2024 191.271C99.234 191.26 99.2633 191.244 99.2884 191.222C99.3136 191.2 99.3342 191.173 99.3491 191.144C99.364 191.114 99.3728 191.081 99.3751 191.048V191.003L98.6435 169.592C98.6395 169.509 98.6081 169.429 98.5542 169.365C98.5004 169.302 98.427 169.257 98.3455 169.24C98.3122 169.236 98.2786 169.239 98.2465 169.248C98.2144 169.257 98.1844 169.273 98.1584 169.294C98.1323 169.315 98.1107 169.341 98.0948 169.37C98.0788 169.4 98.0689 169.432 98.0655 169.465V169.52ZM116.598 182.614L112.986 200.946C112.971 201.029 112.986 201.115 113.027 201.189C113.068 201.263 113.133 201.32 113.212 201.352C113.241 201.365 113.273 201.372 113.305 201.372C113.338 201.372 113.369 201.366 113.399 201.353C113.429 201.34 113.456 201.322 113.478 201.298C113.5 201.275 113.517 201.247 113.528 201.216C113.532 201.199 113.532 201.18 113.528 201.162L117.14 182.84C117.162 182.76 117.156 182.676 117.123 182.6C117.09 182.524 117.033 182.462 116.96 182.424C116.901 182.399 116.834 182.397 116.774 182.419C116.714 182.44 116.664 182.484 116.635 182.542C116.631 182.562 116.631 182.584 116.635 182.605L116.598 182.614ZM103.15 173.105L101.814 193.107C101.809 193.192 101.833 193.276 101.882 193.345C101.931 193.414 102.003 193.464 102.085 193.486C102.149 193.5 102.217 193.488 102.272 193.452C102.328 193.417 102.368 193.361 102.383 193.297L103.719 173.285C103.724 173.201 103.7 173.117 103.651 173.048C103.602 172.979 103.53 172.929 103.448 172.906C103.384 172.892 103.316 172.905 103.261 172.94C103.205 172.976 103.165 173.031 103.15 173.096C103.15 173.099 103.15 173.102 103.15 173.105V173.105ZM111.767 179.191L108.488 197.776C108.478 197.859 108.496 197.943 108.538 198.014C108.58 198.086 108.645 198.142 108.723 198.173C108.779 198.199 108.844 198.202 108.902 198.182C108.961 198.162 109.01 198.12 109.039 198.065C109.043 198.038 109.043 198.01 109.039 197.984L112.308 179.417C112.321 179.334 112.306 179.249 112.265 179.175C112.224 179.102 112.16 179.044 112.083 179.011C112.053 178.998 112.021 178.991 111.989 178.991C111.957 178.99 111.925 178.997 111.895 179.009C111.865 179.022 111.839 179.041 111.817 179.064C111.794 179.088 111.777 179.116 111.767 179.146C111.763 179.167 111.763 179.188 111.767 179.209V179.191ZM105.155 195.446C105.147 195.53 105.168 195.614 105.214 195.685C105.26 195.755 105.328 195.808 105.408 195.834C105.466 195.855 105.529 195.852 105.585 195.827C105.64 195.802 105.684 195.756 105.706 195.699C105.711 195.672 105.711 195.645 105.706 195.618L108.127 176.446C108.131 176.378 108.117 176.309 108.085 176.249C108.053 176.188 108.005 176.138 107.946 176.103C107.917 176.091 107.885 176.086 107.853 176.087C107.822 176.088 107.79 176.096 107.762 176.109C107.733 176.123 107.707 176.142 107.686 176.166C107.665 176.189 107.649 176.217 107.639 176.247C107.635 176.271 107.635 176.296 107.639 176.32L105.155 195.446Z" fill="url(#paint21_linear)"/>
<path fill-rule="evenodd" clip-rule="evenodd" d="M93.92 167.072L122.632 187.499L117.213 203.131L95.3018 187.59L93.92 167.072ZM94.5432 188.402L117.267 204.576C117.316 204.619 117.374 204.652 117.437 204.672C117.499 204.693 117.565 204.701 117.63 204.696C117.696 204.691 117.76 204.673 117.818 204.643C117.877 204.613 117.929 204.572 117.971 204.522L118.034 204.422L123.887 187.599C123.931 187.451 123.927 187.293 123.877 187.147C123.827 187.002 123.732 186.875 123.607 186.786L93.4955 165.42C93.4459 165.377 93.3882 165.344 93.3258 165.323C93.2634 165.303 93.1975 165.295 93.132 165.3C93.0664 165.305 93.0026 165.323 92.944 165.353C92.8855 165.383 92.8335 165.424 92.791 165.474L92.7278 165.573C92.6843 165.673 92.6628 165.781 92.6646 165.889L94.209 187.842C94.2127 187.96 94.245 188.075 94.3033 188.177C94.3615 188.28 94.4439 188.366 94.5432 188.429V188.402Z" fill="url(#paint22_linear)"/>
<path fill-rule="evenodd" clip-rule="evenodd" d="M79.1804 193.261L73.7162 174.233L92.764 166.838L94.1729 187.427L79.1804 193.261ZM95.347 187.942L93.8387 165.98C93.8302 165.813 93.7643 165.655 93.6524 165.532C93.5405 165.408 93.3893 165.327 93.2246 165.302C93.1439 165.299 93.0635 165.315 92.9897 165.348L72.7589 173.204C72.6322 173.265 72.5325 173.371 72.4792 173.501C72.4258 173.631 72.4225 173.776 72.4699 173.908L78.2953 194.164C78.33 194.325 78.4229 194.467 78.5563 194.564C78.6896 194.66 78.854 194.705 79.0178 194.687H79.1171L95.0399 188.502C95.1457 188.455 95.2331 188.375 95.2887 188.274C95.3442 188.173 95.3647 188.056 95.347 187.942Z" fill="url(#paint23_linear)"/>
<path fill-rule="evenodd" clip-rule="evenodd" d="M89.3771 167.325L91.5085 189.043C91.5142 189.127 91.5489 189.206 91.6065 189.267C91.6642 189.328 91.7413 189.367 91.8246 189.378C91.8594 189.378 91.8939 189.371 91.9258 189.357C91.9577 189.343 91.9864 189.323 92.0102 189.297C92.0339 189.272 92.0521 189.242 92.0637 189.209C92.0753 189.176 92.08 189.141 92.0775 189.107V189.107L89.9551 167.388C89.9478 167.305 89.9126 167.227 89.8552 167.166C89.7979 167.106 89.7216 167.066 89.639 167.054C89.5695 167.054 89.5029 167.082 89.4538 167.131C89.4047 167.18 89.3771 167.247 89.3771 167.316V167.325ZM85.2677 168.933L88.4288 190.263C88.4393 190.345 88.4787 190.421 88.5398 190.477C88.6009 190.533 88.68 190.566 88.7629 190.57C88.7974 190.567 88.831 190.558 88.8619 190.543C88.8928 190.528 88.9204 190.506 88.943 190.48C88.9657 190.454 88.983 190.424 88.9939 190.391C89.0049 190.359 89.0092 190.324 89.0068 190.29C89.0068 190.29 89.0068 190.29 89.0068 190.244L85.8457 168.924C85.8354 168.843 85.7974 168.768 85.7381 168.712C85.6788 168.656 85.6019 168.622 85.5206 168.617C85.4519 168.621 85.3875 168.652 85.3406 168.702C85.2936 168.752 85.2675 168.819 85.2677 168.887C85.2677 168.887 85.2677 168.878 85.2677 168.933ZM78.0424 171.759L81.8989 192.809C81.9077 192.892 81.9464 192.969 82.008 193.026C82.0695 193.082 82.1495 193.114 82.2331 193.116C82.2688 193.112 82.3032 193.1 82.3345 193.082C82.3657 193.064 82.393 193.04 82.4149 193.012C82.4367 192.983 82.4527 192.951 82.4618 192.916C82.4709 192.881 82.473 192.845 82.4679 192.809V192.809L78.6114 171.759C78.5986 171.677 78.5571 171.602 78.4943 171.547C78.4315 171.493 78.3514 171.462 78.2682 171.461C78.2349 171.465 78.2026 171.474 78.1732 171.49C78.1438 171.506 78.1178 171.528 78.0968 171.554C78.0758 171.58 78.0602 171.61 78.0508 171.642C78.0415 171.674 78.0386 171.708 78.0424 171.741C78.0418 171.747 78.0418 171.753 78.0424 171.759V171.759ZM81.8718 170.025C81.9547 170.029 82.0338 170.062 82.0949 170.118C82.1561 170.174 82.1954 170.25 82.206 170.332L85.7283 191.518C85.7377 191.551 85.7402 191.586 85.7357 191.62C85.7311 191.654 85.7196 191.687 85.7018 191.717C85.6841 191.746 85.6604 191.772 85.6324 191.792C85.6043 191.812 85.5724 191.827 85.5386 191.834V191.834C85.4557 191.83 85.3766 191.797 85.3155 191.741C85.2544 191.685 85.215 191.609 85.2045 191.527L81.6821 170.35C81.6725 170.317 81.6695 170.282 81.6734 170.248C81.6773 170.214 81.6879 170.18 81.7047 170.15C81.7215 170.12 81.7441 170.093 81.7712 170.072C81.7984 170.051 81.8295 170.035 81.8628 170.025V170.025H81.8718Z" fill="url(#paint24_linear)"/>
<path fill-rule="evenodd" clip-rule="evenodd" d="M94.8051 196.069C94.8196 196.215 94.8826 196.353 94.9841 196.459C95.0856 196.565 95.2196 196.635 95.3651 196.656C95.4202 196.666 95.4769 196.666 95.5319 196.654C95.5868 196.643 95.6389 196.62 95.6851 196.588C95.7313 196.556 95.7707 196.516 95.801 196.468C95.8314 196.421 95.852 196.368 95.8618 196.313C95.8663 196.271 95.8663 196.229 95.8618 196.187L93.2517 158.259C93.2386 158.109 93.1752 157.969 93.0718 157.861C92.9683 157.752 92.8311 157.683 92.6827 157.663C92.6275 157.654 92.5711 157.656 92.5167 157.668C92.4623 157.681 92.4109 157.705 92.3656 157.737C92.3203 157.77 92.2819 157.811 92.2526 157.859C92.2233 157.907 92.2037 157.96 92.195 158.015C92.1859 158.056 92.1859 158.1 92.195 158.141L94.8051 196.069Z" fill="url(#paint25_linear)"/>
<path fill-rule="evenodd" clip-rule="evenodd" d="M93.1884 159.08C93.2886 159.035 93.3786 158.97 93.4534 158.889C93.5281 158.808 93.5861 158.713 93.6239 158.61C93.6617 158.507 93.6786 158.397 93.6736 158.287C93.6687 158.177 93.6419 158.069 93.5949 157.97C93.5805 157.932 93.5623 157.896 93.5407 157.861C93.4336 157.626 93.2444 157.437 93.0084 157.331C92.7723 157.224 92.5057 157.208 92.2582 157.283L70.4648 165.745C70.2656 165.836 70.1097 166.001 70.0304 166.205C69.9511 166.409 69.9547 166.636 70.0403 166.838C70.0559 166.879 70.0772 166.919 70.1036 166.955C70.2136 167.188 70.4027 167.376 70.6374 167.483C70.8722 167.59 71.1374 167.611 71.3861 167.542L93.1884 159.08Z" fill="#68E1FD"/>
<path d="M86.3425 157.437C86.3425 157.437 89.0519 158.277 89.5577 159.243C90.0635 160.209 90.2983 162.367 89.9099 162.422C89.5216 162.476 88.4829 160.318 88.1036 160.227C87.7243 160.137 87.2005 159.749 87.2817 160.092C87.363 160.435 87.8056 160.995 87.6611 161.148C87.5166 161.302 86.8121 160.39 86.4237 160.245C86.0354 160.101 85.5748 158.584 85.1412 158.222C84.7077 157.861 86.3425 157.437 86.3425 157.437Z" fill="#FFB27D"/>
<path d="M67.6289 154.258L71.9189 161.79L70.5371 162.72L64.7027 156.462L67.6289 154.258Z" fill="#FFB27D"/>
<path d="M71.5035 161.654C71.7274 161.711 71.9453 161.789 72.1538 161.889C72.609 162.017 73.0416 162.215 73.4362 162.476C74.1174 163.062 74.6629 163.789 75.0348 164.607C75.1515 164.804 75.2226 165.025 75.243 165.253C75.2633 165.481 75.2323 165.711 75.1523 165.925C74.9548 166.199 74.6817 166.41 74.3665 166.531C74.2829 166.576 74.1906 166.604 74.0956 166.612C73.9496 166.59 73.8139 166.524 73.7072 166.422L71.7112 164.752C71.4151 164.537 71.1636 164.267 70.9706 163.957C70.799 163.65 70.7448 163.289 70.5913 162.973C70.4377 162.656 70.1307 162.476 70.3565 162.169C70.5822 161.862 71.1693 161.753 71.5035 161.654Z" fill="#FFB27D"/>
<path fill-rule="evenodd" clip-rule="evenodd" d="M80.2551 201.207C80.2911 201.351 80.3773 201.478 80.4981 201.564C80.619 201.65 80.7666 201.69 80.9144 201.677C81.028 201.663 81.1316 201.606 81.2027 201.516C81.2738 201.426 81.3065 201.312 81.2938 201.198V201.09L71.4583 166.576C71.4192 166.434 71.3322 166.309 71.2121 166.224C71.092 166.138 70.9461 166.097 70.799 166.106C70.6839 166.124 70.5802 166.186 70.5095 166.278C70.4388 166.371 70.4066 166.487 70.4197 166.603V166.702L80.2551 201.207Z" fill="url(#paint26_linear)"/>
<path fill-rule="evenodd" clip-rule="evenodd" d="M83.5607 203.998C82.3143 203.429 81.3118 204.142 81.3118 205.587C81.341 206.333 81.5636 207.058 81.9579 207.691C82.3522 208.324 82.9046 208.844 83.5607 209.199C84.8071 209.759 85.8186 209.046 85.8186 207.601C85.7888 206.856 85.5648 206.131 85.1688 205.499C84.7727 204.867 84.2184 204.35 83.5607 203.998Z" fill="url(#paint27_linear)"/>
<path fill-rule="evenodd" clip-rule="evenodd" d="M82.8653 203.79C82.3923 203.764 81.919 203.835 81.4744 203.998C81.1944 204.097 83.082 205.19 82.8653 203.79Z" fill="url(#paint28_linear)"/>
<path fill-rule="evenodd" clip-rule="evenodd" d="M83.5607 209.515C84.0332 209.549 84.5075 209.482 84.9516 209.317C85.2406 209.181 83.353 208.116 83.5607 209.515Z" fill="url(#paint29_linear)"/>
<path fill-rule="evenodd" clip-rule="evenodd" d="M82.7659 204.097C81.5286 203.537 80.517 204.251 80.517 205.696C80.5444 206.441 80.7663 207.167 81.1608 207.801C81.5553 208.434 82.1086 208.954 82.7659 209.308C84.0123 209.877 85.0238 209.163 85.0238 207.718C84.9927 206.971 84.7683 206.245 84.3726 205.61C83.9768 204.975 83.4233 204.454 82.7659 204.097V204.097Z" fill="#473F47"/>
<path fill-rule="evenodd" clip-rule="evenodd" d="M82.7659 205.903C82.4047 205.732 82.1066 205.948 82.1066 206.373C82.1135 206.593 82.1781 206.807 82.2938 206.994C82.4095 207.181 82.5723 207.334 82.7659 207.438C83.1362 207.61 83.4343 207.438 83.4343 206.969C83.4265 206.748 83.3606 206.533 83.2432 206.346C83.1259 206.159 82.9612 206.006 82.7659 205.903V205.903Z" fill="url(#paint30_linear)"/>
<path fill-rule="evenodd" clip-rule="evenodd" d="M97.5417 213.715C96.3043 213.155 95.2928 213.868 95.2928 215.313C95.3219 216.058 95.5446 216.783 95.9389 217.417C96.3332 218.05 96.8856 218.57 97.5417 218.925C98.788 219.485 99.7996 218.772 99.7996 217.327C99.7687 216.581 99.5443 215.855 99.1484 215.222C98.7526 214.589 98.1989 214.069 97.5417 213.715V213.715Z" fill="url(#paint31_linear)"/>
<path fill-rule="evenodd" clip-rule="evenodd" d="M96.8192 213.516C96.3462 213.49 95.8729 213.56 95.4283 213.724C95.1573 213.85 97.0359 214.934 96.8192 213.516Z" fill="url(#paint32_linear)"/>
<path fill-rule="evenodd" clip-rule="evenodd" d="M97.5236 219.232C97.996 219.262 98.4693 219.194 98.9145 219.034C99.1945 218.907 97.3069 217.842 97.5236 219.232Z" fill="url(#paint33_linear)"/>
<path fill-rule="evenodd" clip-rule="evenodd" d="M96.7288 213.814C95.4825 213.254 94.4709 213.967 94.4709 215.412C94.4992 216.159 94.7225 216.885 95.1186 217.519C95.5147 218.153 96.0699 218.672 96.7288 219.025C97.9752 219.593 98.9777 218.88 98.9777 217.435C98.9501 216.688 98.7282 215.961 98.3338 215.326C97.9394 214.691 97.3862 214.17 96.7288 213.814V213.814Z" fill="#473F47"/>
<path fill-rule="evenodd" clip-rule="evenodd" d="M97.2617 212.73C97.2551 212.581 97.1993 212.438 97.1029 212.323C97.0065 212.209 96.875 212.13 96.7288 212.098C96.6731 212.085 96.6152 212.083 96.5586 212.092C96.502 212.101 96.4478 212.121 96.399 212.151C96.3503 212.182 96.3081 212.221 96.2748 212.268C96.2415 212.315 96.2177 212.367 96.205 212.423C96.2005 212.462 96.2005 212.502 96.205 212.541V216.333C96.2116 216.483 96.2674 216.626 96.3638 216.74C96.4602 216.855 96.5917 216.934 96.7379 216.966C96.7948 216.977 96.8535 216.978 96.9107 216.967C96.9678 216.956 97.0223 216.934 97.0709 216.903C97.1196 216.871 97.1615 216.83 97.1942 216.781C97.2269 216.733 97.2499 216.679 97.2617 216.622C97.2662 216.589 97.2662 216.556 97.2617 216.523V212.73Z" fill="white"/>
<path fill-rule="evenodd" clip-rule="evenodd" d="M83.2988 203.005C83.295 202.855 83.24 202.712 83.143 202.598C83.0459 202.485 82.9128 202.408 82.7659 202.381C82.7114 202.368 82.6547 202.366 82.5991 202.374C82.5436 202.383 82.4904 202.402 82.4425 202.432C82.3946 202.461 82.353 202.5 82.3202 202.545C82.2873 202.591 82.2638 202.643 82.2511 202.697C82.2466 202.736 82.2466 202.776 82.2511 202.815V206.608C82.2557 206.756 82.3096 206.899 82.4045 207.014C82.4994 207.128 82.6297 207.208 82.775 207.24C82.8307 207.253 82.8886 207.255 82.9452 207.246C83.0018 207.237 83.056 207.217 83.1048 207.187C83.1535 207.156 83.1957 207.117 83.229 207.07C83.2623 207.023 83.286 206.971 83.2988 206.915C83.3033 206.876 83.3033 206.836 83.2988 206.797V203.005Z" fill="white"/>
<path fill-rule="evenodd" clip-rule="evenodd" d="M99.059 198.679L98.77 197.966L84.1116 203.266L84.4007 203.98L99.059 198.679ZM102.076 200.928L87.4172 206.228L87.1282 205.515L101.787 200.214L102.076 200.928ZM105.237 203.014L90.5783 208.314L90.2893 207.601L104.939 202.291L105.228 203.004L105.237 203.014ZM109.129 205.723L94.4709 211.024L94.1819 210.31L108.849 205.063L109.138 205.777L109.129 205.723ZM98.481 214.058L98.192 213.344L112.85 208.043L113.139 208.757L98.481 214.058Z" fill="url(#paint34_linear)"/>
<path fill-rule="evenodd" clip-rule="evenodd" d="M102.265 209.308L103.629 195.69L122.324 188.465L117.059 203.601L102.265 209.344V209.308ZM118.071 204.35L123.887 187.626C123.933 187.464 123.923 187.291 123.859 187.136C123.796 186.98 123.681 186.85 123.535 186.768C123.396 186.695 123.234 186.679 123.083 186.723L102.834 194.588C102.747 194.627 102.671 194.688 102.615 194.766C102.56 194.844 102.526 194.935 102.518 195.031L101.01 210.12C100.998 210.288 101.042 210.454 101.135 210.593C101.228 210.732 101.365 210.836 101.525 210.888C101.627 210.924 101.738 210.924 101.841 210.888L117.782 204.693C117.853 204.662 117.916 204.615 117.966 204.555C118.016 204.496 118.052 204.426 118.071 204.35V204.35Z" fill="white"/>
<path fill-rule="evenodd" clip-rule="evenodd" d="M118.197 189.107L114.63 205C114.612 205.084 114.624 205.171 114.664 205.247C114.703 205.322 114.768 205.382 114.846 205.416C114.905 205.441 114.972 205.443 115.032 205.421C115.092 205.399 115.142 205.355 115.171 205.298C115.175 205.277 115.175 205.256 115.171 205.235L118.784 189.332C118.798 189.25 118.784 189.166 118.744 189.093C118.705 189.019 118.643 188.961 118.567 188.926C118.508 188.901 118.442 188.899 118.382 188.92C118.321 188.942 118.271 188.986 118.242 189.043C118.238 189.064 118.238 189.086 118.242 189.107H118.197ZM114.079 190.714C114.088 190.65 114.121 190.592 114.171 190.552C114.221 190.512 114.285 190.492 114.35 190.497H114.413C114.49 190.528 114.555 190.584 114.598 190.656C114.64 190.728 114.658 190.812 114.648 190.895L112.119 206.373C112.116 206.405 112.108 206.436 112.093 206.465C112.079 206.494 112.059 206.519 112.035 206.54C112.01 206.561 111.982 206.577 111.952 206.587C111.921 206.597 111.889 206.601 111.857 206.599H111.785C111.706 206.567 111.639 206.51 111.597 206.436C111.554 206.362 111.538 206.277 111.55 206.192L114.079 190.714ZM106.853 193.55L105.047 208.757C105.039 208.841 105.059 208.925 105.105 208.995C105.151 209.066 105.22 209.119 105.3 209.145C105.362 209.162 105.429 209.155 105.486 209.125C105.543 209.095 105.586 209.044 105.607 208.983C105.611 208.962 105.611 208.94 105.607 208.919L107.413 193.712C107.422 193.628 107.401 193.544 107.355 193.474C107.309 193.403 107.24 193.35 107.16 193.324C107.098 193.307 107.032 193.314 106.975 193.344C106.917 193.374 106.874 193.425 106.853 193.486C106.849 193.507 106.849 193.529 106.853 193.55V193.55ZM108.289 207.475C108.28 207.559 108.299 207.643 108.343 207.715C108.387 207.787 108.454 207.842 108.533 207.872C108.564 207.885 108.598 207.89 108.632 207.889C108.665 207.887 108.698 207.878 108.728 207.863C108.758 207.848 108.785 207.826 108.806 207.799C108.826 207.773 108.841 207.742 108.849 207.709V207.709L111.017 192.358C111.028 192.273 111.01 192.188 110.965 192.116C110.921 192.043 110.853 191.989 110.773 191.96C110.708 191.943 110.64 191.951 110.581 191.983C110.522 192.015 110.478 192.068 110.457 192.132C110.456 192.147 110.456 192.162 110.457 192.177L108.289 207.475Z" fill="white"/>
<path d="M58.2721 118.236C58.1172 118.497 58.0016 118.78 57.9289 119.076C57.7188 119.57 57.6104 120.101 57.6104 120.638C57.6104 121.175 57.7188 121.706 57.9289 122.2C58.0809 122.596 58.2909 122.967 58.5521 123.302C58.8209 123.638 59.1973 123.87 59.6178 123.961C59.6625 123.97 59.7086 123.97 59.7533 123.961C59.7912 123.944 59.8228 123.916 59.8436 123.88C59.9519 123.604 59.9519 123.298 59.8436 123.022C59.6723 121.937 59.7527 120.828 60.0785 119.78C60.2058 119.395 60.2758 118.993 60.2862 118.588C60.2997 118.367 60.2359 118.147 60.1058 117.968C59.9756 117.788 59.7872 117.66 59.5727 117.604C59.3174 117.565 59.0562 117.604 58.824 117.717C58.5917 117.83 58.3992 118.011 58.2721 118.236V118.236Z" fill="#68E1FD"/>
<path fill-rule="evenodd" clip-rule="evenodd" d="M72.7589 173.195L103.43 194.751L102.952 196.268L73.0389 174.802L72.7589 173.195Z" fill="white"/>
<path fill-rule="evenodd" clip-rule="evenodd" d="M80.0293 179.598L82.8833 196.828L83.4794 197.008L81.1402 180.248L80.0293 179.598Z" fill="white"/>
<path fill-rule="evenodd" clip-rule="evenodd" d="M85.5838 183.481L87.1372 200.052L87.7333 200.25L86.6947 184.14L85.5838 183.481Z" fill="white"/>
<path fill-rule="evenodd" clip-rule="evenodd" d="M91.0299 187.102L91.2105 202.878L91.8066 203.077L92.1408 187.779L91.0299 187.102Z" fill="white"/>
<path fill-rule="evenodd" clip-rule="evenodd" d="M95.0941 190.552L95.8528 206.599L96.4489 206.797L96.205 191.22L95.0941 190.552Z" fill="white"/>
<path fill-rule="evenodd" clip-rule="evenodd" d="M101.389 209.308L79.1713 193.252L79.0178 194.715L101.525 210.888L101.389 209.308Z" fill="white"/>
<path d="M40.7598 80.3259V95.6144C40.7478 96.3141 40.8738 97.0093 41.1306 97.6603C41.3874 98.3113 41.77 98.9054 42.2564 99.4085C42.7429 99.9117 43.3237 100.314 43.9657 100.593C44.6077 100.871 45.2983 101.021 45.9981 101.033H57.7393L63.0228 108.681V101.033H72.9576C73.6589 101.023 74.3515 100.876 74.9956 100.598C75.6397 100.32 76.2226 99.9182 76.711 99.4148C77.1993 98.9114 77.5835 98.3166 77.8414 97.6644C78.0993 97.0123 78.2259 96.3156 78.214 95.6144V80.2626C78.2333 78.8478 77.6909 77.4831 76.7056 76.4674C75.7203 75.4518 74.3725 74.8681 72.9576 74.8444H46.0072C45.3015 74.8561 44.6052 75.0075 43.9585 75.29C43.3118 75.5726 42.7275 75.9805 42.2395 76.4903C41.7515 77.0001 41.3695 77.6015 41.1155 78.2599C40.8615 78.9183 40.7406 79.6205 40.7598 80.3259Z" fill="white"/>
<path d="M57.369 99.064L57.4683 96.4633C56.1308 96.4001 54.8408 95.9482 53.7563 95.1629L54.4066 93.4832C55.4274 94.2328 56.6459 94.6661 57.9109 94.7294C59.7172 94.7926 60.9003 93.8264 60.9545 92.3454C61.0087 90.8644 60.0514 90.0336 58.245 89.1847C55.7613 88.0649 54.244 86.8187 54.3343 84.6063C54.3742 83.5731 54.8013 82.5927 55.5309 81.8599C56.2604 81.1271 57.239 80.6955 58.2721 80.6509L58.3624 78.0502L59.8978 78.1134L59.8075 80.5877C60.9384 80.6506 62.0336 81.0053 62.9866 81.6172L62.3183 83.3059C61.3887 82.6769 60.2975 82.3289 59.1753 82.3035C57.2696 82.2222 56.4658 83.3691 56.4658 84.3895C56.4116 85.717 57.3057 86.4124 59.4011 87.4238C61.9209 88.5977 63.1492 89.9794 63.0137 92.246C62.9675 93.3217 62.5266 94.3427 61.7752 95.1139C61.0238 95.8851 60.0147 96.3526 58.9405 96.4271L58.8411 99.0821L57.369 99.064Z" fill="#68E1FD"/>
<defs>
<linearGradient id="paint0_linear" x1="83.8497" y1="168.833" x2="86.6398" y2="352.404" gradientUnits="userSpaceOnUse">
<stop offset="0.01"/>
<stop offset="0.08" stop-opacity="0.69"/>
<stop offset="0.21" stop-opacity="0.32"/>
<stop offset="1" stop-opacity="0"/>
</linearGradient>
<linearGradient id="paint1_linear" x1="-235.378" y1="36.9057" x2="-236.17" y2="38.059" gradientUnits="userSpaceOnUse">
<stop offset="0.01"/>
<stop offset="0.08" stop-opacity="0.69"/>
<stop offset="0.21" stop-opacity="0.32"/>
<stop offset="1" stop-opacity="0"/>
</linearGradient>
<linearGradient id="paint2_linear" x1="213823" y1="-23422.6" x2="177542" y2="58749.2" gradientUnits="userSpaceOnUse">
<stop offset="0.01"/>
<stop offset="0.08" stop-opacity="0.69"/>
<stop offset="0.21" stop-opacity="0.32"/>
<stop offset="1" stop-opacity="0"/>
</linearGradient>
<linearGradient id="paint3_linear" x1="137280" y1="-12703.7" x2="135322" y2="3498.22" gradientUnits="userSpaceOnUse">
<stop offset="0.01"/>
<stop offset="0.08" stop-opacity="0.69"/>
<stop offset="0.21" stop-opacity="0.32"/>
<stop offset="1" stop-opacity="0"/>
</linearGradient>
<linearGradient id="paint4_linear" x1="96988.9" y1="-8923.35" x2="97495.6" y2="2564.63" gradientUnits="userSpaceOnUse">
<stop offset="0.01"/>
<stop offset="0.08" stop-opacity="0.69"/>
<stop offset="0.21" stop-opacity="0.32"/>
<stop offset="1" stop-opacity="0"/>
</linearGradient>
<linearGradient id="paint5_linear" x1="48927.2" y1="-4721.02" x2="49265.7" y2="990.36" gradientUnits="userSpaceOnUse">
<stop offset="0.01"/>
<stop offset="0.08" stop-opacity="0.69"/>
<stop offset="0.21" stop-opacity="0.32"/>
<stop offset="1" stop-opacity="0"/>
</linearGradient>
<linearGradient id="paint6_linear" x1="22655.6" y1="-991.554" x2="22706.3" y2="-552.945" gradientUnits="userSpaceOnUse">
<stop offset="0.01"/>
<stop offset="0.08" stop-opacity="0.69"/>
<stop offset="0.21" stop-opacity="0.32"/>
<stop offset="1" stop-opacity="0"/>
</linearGradient>
<linearGradient id="paint7_linear" x1="94922.2" y1="-29973.4" x2="89213.6" y2="35422.9" gradientUnits="userSpaceOnUse">
<stop offset="0.01"/>
<stop offset="0.08" stop-opacity="0.69"/>
<stop offset="0.21" stop-opacity="0.32"/>
<stop offset="1" stop-opacity="0"/>
</linearGradient>
<linearGradient id="paint8_linear" x1="9128.04" y1="14771.2" x2="1966.74" y2="5726.18" gradientUnits="userSpaceOnUse">
<stop offset="0.01"/>
<stop offset="0.08" stop-opacity="0.69"/>
<stop offset="0.21" stop-opacity="0.32"/>
<stop offset="1" stop-opacity="0"/>
</linearGradient>
<linearGradient id="paint9_linear" x1="16848.3" y1="-4420.95" x2="16998.7" y2="-2038.49" gradientUnits="userSpaceOnUse">
<stop offset="0.01"/>
<stop offset="0.08" stop-opacity="0.69"/>
<stop offset="0.21" stop-opacity="0.32"/>
<stop offset="1" stop-opacity="0"/>
</linearGradient>
<linearGradient id="paint10_linear" x1="159.065" y1="102.839" x2="307.851" y2="252.592" gradientUnits="userSpaceOnUse">
<stop stop-color="white" stop-opacity="0"/>
<stop offset="0.54" stop-color="white"/>
</linearGradient>
<linearGradient id="paint11_linear" x1="179.251" y1="194.895" x2="174.926" y2="106.767" gradientUnits="userSpaceOnUse">
<stop offset="0.01"/>
<stop offset="0.13" stop-opacity="0.69"/>
<stop offset="0.25" stop-opacity="0.32"/>
<stop offset="1" stop-opacity="0"/>
</linearGradient>
<linearGradient id="paint12_linear" x1="28658.2" y1="5275.86" x2="28277.6" y2="7279.46" gradientUnits="userSpaceOnUse">
<stop offset="0.01"/>
<stop offset="0.13" stop-opacity="0.69"/>
<stop offset="0.25" stop-opacity="0.32"/>
<stop offset="1" stop-opacity="0"/>
</linearGradient>
<linearGradient id="paint13_linear" x1="2043.66" y1="5313.35" x2="2487.97" y2="5313.35" gradientUnits="userSpaceOnUse">
<stop offset="0.01"/>
<stop offset="0.08" stop-opacity="0.69"/>
<stop offset="0.21" stop-opacity="0.32"/>
<stop offset="1" stop-opacity="0"/>
</linearGradient>
<linearGradient id="paint14_linear" x1="741.107" y1="5203.93" x2="805.442" y2="5203.93" gradientUnits="userSpaceOnUse">
<stop offset="0.01"/>
<stop offset="0.08" stop-opacity="0.69"/>
<stop offset="0.21" stop-opacity="0.32"/>
<stop offset="1" stop-opacity="0"/>
</linearGradient>
<linearGradient id="paint15_linear" x1="744.37" y1="3811.66" x2="1412.22" y2="3052.14" gradientUnits="userSpaceOnUse">
<stop offset="0.01"/>
<stop offset="0.08" stop-opacity="0.69"/>
<stop offset="0.21" stop-opacity="0.32"/>
<stop offset="1" stop-opacity="0"/>
</linearGradient>
<linearGradient id="paint16_linear" x1="779.515" y1="745.441" x2="881.035" y2="1104.29" gradientUnits="userSpaceOnUse">
<stop stop-color="white" stop-opacity="0"/>
<stop offset="0.54" stop-color="white"/>
</linearGradient>
<linearGradient id="paint17_linear" x1="320.101" y1="277.351" x2="325.73" y2="326.611" gradientUnits="userSpaceOnUse">
<stop stop-color="white" stop-opacity="0"/>
<stop offset="0.54" stop-color="white"/>
</linearGradient>
<linearGradient id="paint18_linear" x1="327.215" y1="281.257" x2="332.752" y2="330.148" gradientUnits="userSpaceOnUse">
<stop stop-color="white" stop-opacity="0"/>
<stop offset="0.54" stop-color="white"/>
</linearGradient>
<linearGradient id="paint19_linear" x1="306.464" y1="369.329" x2="336.639" y2="475.477" gradientUnits="userSpaceOnUse">
<stop stop-color="white" stop-opacity="0"/>
<stop offset="0.54" stop-color="white"/>
</linearGradient>
<linearGradient id="paint20_linear" x1="265.215" y1="677.218" x2="434.174" y2="836.843" gradientUnits="userSpaceOnUse">
<stop stop-color="white" stop-opacity="0"/>
<stop offset="0.54" stop-color="white"/>
</linearGradient>
<linearGradient id="paint21_linear" x1="2705.06" y1="3347.29" x2="3450.08" y2="5288.36" gradientUnits="userSpaceOnUse">
<stop stop-color="white" stop-opacity="0"/>
<stop offset="0.54" stop-color="white"/>
</linearGradient>
<linearGradient id="paint22_linear" x1="4378.06" y1="4056.73" x2="5102.52" y2="6579.39" gradientUnits="userSpaceOnUse">
<stop stop-color="white" stop-opacity="0"/>
<stop offset="0.54" stop-color="white"/>
</linearGradient>
<linearGradient id="paint23_linear" x1="2649.64" y1="3233.53" x2="3197.92" y2="5109.99" gradientUnits="userSpaceOnUse">
<stop stop-color="white" stop-opacity="0"/>
<stop offset="0.54" stop-color="white"/>
</linearGradient>
<linearGradient id="paint24_linear" x1="1672.27" y1="2881.4" x2="2320.64" y2="4413.16" gradientUnits="userSpaceOnUse">
<stop stop-color="white" stop-opacity="0"/>
<stop offset="0.54" stop-color="white"/>
</linearGradient>
<linearGradient id="paint25_linear" x1="541.626" y1="4142.94" x2="1496.17" y2="4537.61" gradientUnits="userSpaceOnUse">
<stop stop-color="white" stop-opacity="0"/>
<stop offset="0.54" stop-color="white"/>
</linearGradient>
<linearGradient id="paint26_linear" x1="1209.62" y1="3942.71" x2="2391.15" y2="5527.85" gradientUnits="userSpaceOnUse">
<stop stop-color="white" stop-opacity="0"/>
<stop offset="0.54" stop-color="white"/>
</linearGradient>
<linearGradient id="paint27_linear" x1="614.375" y1="779.776" x2="715.758" y2="1138.46" gradientUnits="userSpaceOnUse">
<stop stop-color="white" stop-opacity="0"/>
<stop offset="0.54" stop-color="white"/>
</linearGradient>
<linearGradient id="paint28_linear" x1="248.385" y1="277.569" x2="253.9" y2="326.34" gradientUnits="userSpaceOnUse">
<stop stop-color="white" stop-opacity="0"/>
<stop offset="0.54" stop-color="white"/>
</linearGradient>
<linearGradient id="paint29_linear" x1="255.502" y1="283.066" x2="261.166" y2="332.5" gradientUnits="userSpaceOnUse">
<stop stop-color="white" stop-opacity="0"/>
<stop offset="0.54" stop-color="white"/>
</linearGradient>
<linearGradient id="paint30_linear" x1="238.053" y1="377.158" x2="268.357" y2="483.531" gradientUnits="userSpaceOnUse">
<stop stop-color="white" stop-opacity="0"/>
<stop offset="0.54" stop-color="white"/>
</linearGradient>
<linearGradient id="paint31_linear" x1="705.195" y1="768.165" x2="806.651" y2="1127.08" gradientUnits="userSpaceOnUse">
<stop stop-color="white" stop-opacity="0"/>
<stop offset="0.54" stop-color="white"/>
</linearGradient>
<linearGradient id="paint32_linear" x1="286.588" y1="286.055" x2="292.341" y2="335.842" gradientUnits="userSpaceOnUse">
<stop stop-color="white" stop-opacity="0"/>
<stop offset="0.54" stop-color="white"/>
</linearGradient>
<linearGradient id="paint33_linear" x1="293.868" y1="289.169" x2="299.411" y2="338.055" gradientUnits="userSpaceOnUse">
<stop stop-color="white" stop-opacity="0"/>
<stop offset="0.54" stop-color="white"/>
</linearGradient>
<linearGradient id="paint34_linear" x1="3973.82" y1="1798.98" x2="4112.57" y2="2896.71" gradientUnits="userSpaceOnUse">
<stop stop-color="white" stop-opacity="0"/>
<stop offset="0.54" stop-color="white"/>
</linearGradient>
</defs>
</svg>
