<svg width="336" height="277" viewBox="0 0 336 277" fill="none" xmlns="http://www.w3.org/2000/svg">
<path opacity="0.18" d="M334.096 216.304C331.171 230.786 324.726 244.462 313.713 254.056C295.794 269.678 269.643 271.479 246.11 268.257C222.577 265.035 199.54 257.586 175.763 257.613C144.413 257.613 116.899 277.39 87.2274 276.992C59.8487 276.629 32.8943 261.062 17.3229 238.796C16.3901 237.468 15.4874 236.114 14.6148 234.732C14.3531 234.325 14.1093 233.908 13.8566 233.501C13.1886 232.388 12.5567 231.283 11.9519 230.161C11.6721 229.654 11.4013 229.129 11.1395 228.613C10.8777 228.097 10.5617 227.491 10.2819 226.921C10.2819 226.867 10.2277 226.83 10.2097 226.785C9.92083 226.215 9.65906 225.645 9.38825 225.056C6.89589 219.681 4.89865 214.088 3.42145 208.348C-2.01962 187.296 -0.946053 165.082 6.49963 144.655C7.16762 142.845 7.88978 141.035 8.67512 139.225C12.5116 130.4 17.7472 122.136 24.9777 115.846C39.5652 103.174 59.948 100.079 77.4873 91.9145C85.9329 87.8808 93.8743 82.8619 101.147 76.9621C126.693 56.6605 146.85 28.1495 175.646 12.2558C187.968 5.54535 201.558 1.50288 215.536 0.389784C238.995 -1.54702 262.473 3.88437 282.714 15.9305C329.374 43.9256 320.284 93.0097 328.58 140.356C332.046 160.124 336.56 179.927 335.937 199.976C335.782 205.461 335.166 210.923 334.096 216.304V216.304Z" fill="#68E1FD"/>
<path d="M296.2 119.402H85.2683V222.431H296.2V119.402Z" fill="#68E1FD"/>
<path d="M283.86 132.264H97.572V209.225H283.86V132.264Z" fill="url(#paint0_linear)"/>
<path d="M185.909 199.387C202.127 199.387 215.274 186.205 215.274 169.944C215.274 153.682 202.127 140.5 185.909 140.5C169.692 140.5 156.545 153.682 156.545 169.944C156.545 186.205 169.692 199.387 185.909 199.387Z" fill="#68E1FD"/>
<path d="M182.777 192.553L182.994 187.123C180.111 186.994 177.324 186.052 174.951 184.407L176.359 180.886C178.57 182.454 181.182 183.356 183.887 183.484C187.697 183.629 190.315 181.556 190.441 178.515C190.567 175.474 188.554 173.682 184.691 171.908C179.338 169.554 176.088 166.966 176.269 162.332C176.44 157.906 179.708 154.674 184.646 154.068L184.853 148.637L188.157 148.764L187.95 153.932C190.374 154.059 192.727 154.797 194.792 156.077L193.348 159.607C191.37 158.312 189.074 157.588 186.713 157.516C182.615 157.353 180.981 159.752 180.899 161.879C180.791 164.649 182.705 166.115 187.218 168.215C192.634 170.668 195.27 173.555 195.081 178.298C194.918 182.516 191.831 186.353 186.325 187.041L186.099 192.589L182.777 192.553Z" fill="url(#paint1_linear)"/>
<path d="M127.785 178.452C131.933 178.452 135.295 175.08 135.295 170.921C135.295 166.762 131.933 163.391 127.785 163.391C123.637 163.391 120.275 166.762 120.275 170.921C120.275 175.08 123.637 178.452 127.785 178.452Z" fill="#68E1FD"/>
<path d="M244.025 178.452C248.173 178.452 251.535 175.08 251.535 170.921C251.535 166.762 248.173 163.391 244.025 163.391C239.877 163.391 236.514 166.762 236.514 170.921C236.514 175.08 239.877 178.452 244.025 178.452Z" fill="#68E1FD"/>
<path d="M283.86 144.61C290.661 144.61 296.173 139.082 296.173 132.264C296.173 125.445 290.661 119.918 283.86 119.918C277.06 119.918 271.548 125.445 271.548 132.264C271.548 139.082 277.06 144.61 283.86 144.61Z" fill="#68E1FD"/>
<path d="M283.879 221.544C290.679 221.544 296.191 216.017 296.191 209.198C296.191 202.38 290.679 196.852 283.879 196.852C277.078 196.852 271.566 202.38 271.566 209.198C271.566 216.017 277.078 221.544 283.879 221.544Z" fill="#68E1FD"/>
<path d="M97.563 144.61C104.363 144.61 109.876 139.082 109.876 132.264C109.876 125.445 104.363 119.918 97.563 119.918C90.7628 119.918 85.2502 125.445 85.2502 132.264C85.2502 139.082 90.7628 144.61 97.563 144.61Z" fill="#68E1FD"/>
<path d="M97.581 221.544C104.381 221.544 109.894 216.017 109.894 209.198C109.894 202.38 104.381 196.852 97.581 196.852C90.7809 196.852 85.2683 202.38 85.2683 209.198C85.2683 216.017 90.7809 221.544 97.581 221.544Z" fill="#68E1FD"/>
<path d="M196.832 119.402C196.832 119.402 175.799 185.24 113.441 163.318L102.428 157.706L85.2773 173.048V119.402H196.832Z" fill="url(#paint2_linear)"/>
<path d="M76.6024 102.685C76.6024 91.0489 80.0437 79.6743 86.491 69.9994C92.9383 60.3245 102.102 52.7838 112.823 48.3309C123.545 43.8781 135.343 42.713 146.724 44.983C158.106 47.2531 168.561 52.8563 176.767 61.0841C184.973 69.312 190.561 79.7949 192.825 91.2072C195.089 102.62 193.927 114.449 189.486 125.199C185.045 135.949 177.525 145.137 167.875 151.602C158.226 158.067 146.882 161.517 135.277 161.517C119.724 161.491 104.815 155.284 93.817 144.256C82.8189 133.229 76.6287 118.28 76.6024 102.685ZM83.5622 102.685C83.5622 112.946 86.5968 122.976 92.2824 131.508C97.9679 140.04 106.049 146.69 115.504 150.617C124.958 154.543 135.362 155.571 145.399 153.569C155.436 151.567 164.656 146.626 171.892 139.37C179.128 132.114 184.056 122.87 186.053 112.806C188.049 102.742 187.024 92.3108 183.108 82.8308C179.192 73.3508 172.56 65.2481 164.051 59.5474C155.542 53.8466 145.538 50.8038 135.305 50.8038C121.586 50.8182 108.433 56.2888 98.733 66.0153C89.0326 75.7417 83.5765 88.9295 83.5622 102.685Z" fill="#68E1FD"/>
<path d="M55.8044 189.874C56.5961 189.871 57.3792 189.709 58.1078 189.398C58.8363 189.087 59.4956 188.633 60.0471 188.064L98.5108 148.918C99.0602 148.359 99.4944 147.696 99.7886 146.969C100.083 146.241 100.231 145.463 100.225 144.678C100.219 143.893 100.059 143.117 99.7544 142.394C99.4494 141.671 99.0053 141.015 98.4476 140.464C97.8898 139.913 97.2293 139.478 96.5038 139.183C95.7782 138.888 95.0018 138.739 94.2189 138.745C93.436 138.751 92.6619 138.911 91.9409 139.217C91.2198 139.523 90.5659 139.968 90.0164 140.527L51.5527 179.692C50.7268 180.532 50.167 181.598 49.9439 182.757C49.7207 183.915 49.8441 185.114 50.2984 186.202C50.7528 187.29 51.518 188.219 52.4976 188.873C53.4773 189.526 54.6278 189.874 55.8044 189.874V189.874Z" fill="#68E1FD"/>
<path d="M37.3715 202.31C38.6991 203.618 40.4899 204.345 42.3512 204.332C44.2125 204.318 45.9925 203.565 47.3011 202.238L92.5891 156.159C92.84 155.904 93.0695 155.628 93.2752 155.335C93.3917 155.181 93.5002 155.021 93.6001 154.855C93.9231 154.31 94.0687 153.677 94.017 153.044C93.9652 152.412 93.7186 151.811 93.3113 151.325C92.4352 150.277 91.4784 149.3 90.4497 148.402C89.2643 147.347 87.9795 146.411 86.6133 145.605C86.0547 145.272 85.4062 145.123 84.7587 145.178C84.1112 145.233 83.4971 145.49 83.0025 145.913V145.913C82.8643 146.02 82.7346 146.138 82.6144 146.266L37.3354 192.336C36.6821 192.992 36.1647 193.771 35.8128 194.628C35.4609 195.485 35.2814 196.404 35.2848 197.331C35.2881 198.258 35.4742 199.175 35.8323 200.029C36.1904 200.884 36.7135 201.659 37.3715 202.31V202.31Z" fill="#473F47"/>
<path d="M51.7784 240.931C52.385 240.942 52.9893 241.009 53.5838 241.13C53.8791 241.196 54.1579 241.321 54.4032 241.499C54.6484 241.676 54.8549 241.902 55.0101 242.162C55.2114 242.662 55.2313 243.217 55.0663 243.729C54.9013 244.242 54.5619 244.681 54.1074 244.968C53.1767 245.483 52.1166 245.716 51.0563 245.638C50.3866 245.674 49.7175 245.559 49.0974 245.303C48.3392 244.923 47.6983 244.126 46.8588 244.226C46.4928 244.308 46.1424 244.449 45.8207 244.642C45.2033 244.938 44.497 244.989 43.8439 244.784C43.1908 244.579 42.6392 244.134 42.3002 243.538C42.1308 243.152 42.0358 242.738 42.0203 242.316C41.912 240.968 42.3543 239.411 43.5368 238.841C44.9541 238.162 45.8207 238.958 46.949 239.601C48.4469 240.382 50.0929 240.835 51.7784 240.931V240.931Z" fill="#68E1FD"/>
<path d="M52.0221 233.6L47.5087 240.741C47.5087 240.741 45.5137 241.493 44.3222 240.741L43.1306 240.026L46.1727 229.455L52.0221 233.6Z" fill="#FCBDBA"/>
<path d="M65.8785 181.411C65.8785 181.411 64.028 201.876 63.1704 206.754C61.2747 217.208 52.7624 233.69 52.7624 233.69C52.7624 233.69 47.4094 234.93 46.1185 232.088L45.3874 230.468C45.3874 230.468 54.6309 208.61 49.5488 190.29C49.413 189.752 49.3135 189.204 49.2509 188.652C48.9732 186.537 48.8886 184.401 48.9981 182.271L65.8785 181.411Z" fill="#473F47"/>
<path d="M67.9276 243.592C68.524 243.493 69.1285 243.45 69.7329 243.466C70.0399 243.479 70.3412 243.554 70.6188 243.686C70.8963 243.818 71.1446 244.005 71.3488 244.235C71.6361 244.706 71.7492 245.263 71.6684 245.809C71.5875 246.355 71.3178 246.855 70.9064 247.222C70.072 247.908 69.055 248.333 67.9817 248.444C67.3164 248.597 66.625 248.597 65.9597 248.444C65.1292 248.199 64.3439 247.539 63.5315 247.765C63.1746 247.914 62.8451 248.122 62.5565 248.38C61.9958 248.798 61.2957 248.982 60.6027 248.895C59.9096 248.807 59.2772 248.454 58.8375 247.91C58.6005 247.551 58.4294 247.152 58.332 246.733C57.9889 245.403 58.1424 243.764 59.2346 242.977C60.5255 242.072 61.5365 242.687 62.7822 243.122C64.444 243.646 66.1986 243.807 67.9276 243.592Z" fill="#68E1FD"/>
<path d="M66.8443 236.17L63.6037 244.135C63.6037 244.135 61.7441 245.258 60.4172 244.76L59.0992 244.262L60.2366 233.129L66.8443 236.17Z" fill="#FCBDBA"/>
<path d="M90.9282 155.127C91.1448 154.837 91.4247 154.52 91.7767 154.566C91.9843 154.566 92.1829 154.756 92.3905 154.701C92.5174 154.653 92.6272 154.568 92.7065 154.457C93.2022 153.929 93.753 153.456 94.3494 153.045C94.7162 152.725 95.1566 152.501 95.6312 152.393C95.9639 152.371 96.2961 152.444 96.5888 152.605C96.8814 152.765 97.1223 153.006 97.2831 153.299C97.5865 153.929 97.66 154.647 97.4907 155.326C97.313 155.99 97.0457 156.626 96.6964 157.218C96.4702 157.655 96.1913 158.062 95.8659 158.431C94.8278 159.517 93.212 159.698 91.885 160.367C91.7453 160.453 91.5878 160.506 91.4247 160.521C91.2809 160.5 91.1443 160.445 91.0265 160.36C90.9086 160.275 90.8129 160.163 90.7476 160.033C90.2328 159.297 89.9214 158.439 89.8449 157.544C89.9409 156.643 90.3203 155.797 90.9282 155.127V155.127Z" fill="#FCBDBA"/>
<path d="M78.0197 146.492C78.1763 146.448 78.3438 146.464 78.4891 146.537C78.5702 146.604 78.643 146.68 78.7057 146.764C78.9856 147.071 79.4459 147.08 79.816 147.243C80.052 147.368 80.2591 147.542 80.424 147.752C80.5888 147.963 80.7077 148.206 80.7729 148.465C80.9027 148.992 80.9604 149.534 80.9444 150.076C80.9685 150.363 80.9379 150.652 80.8541 150.927C80.8111 151.062 80.7287 151.18 80.6176 151.268C80.5066 151.355 80.372 151.406 80.2313 151.416C80.0054 151.381 79.7915 151.291 79.6084 151.153C79.2318 150.945 78.7945 150.875 78.3717 150.954C77.8248 151.126 77.3028 151.37 76.8191 151.678C76.5733 151.825 76.2927 151.902 76.0067 151.902C75.7207 151.902 75.44 151.825 75.1943 151.678C74.9687 151.483 74.795 151.234 74.6887 150.954C74.2374 149.977 73.7319 148.854 74.6346 148.049C75.5932 147.219 76.7671 146.679 78.0197 146.492V146.492Z" fill="#FCBDBA"/>
<path d="M71.3578 181.438C71.3578 181.438 73.1632 202.256 73.1632 207.288C73.1632 218.095 67.6116 236.143 67.6116 236.143C67.6116 236.143 62.4753 238.352 60.6789 235.736L59.6228 234.243C59.6228 234.243 64.9396 210.71 56.5536 193.286C56.3215 192.774 56.1284 192.244 55.9759 191.702C55.3154 189.638 54.8441 187.517 54.5677 185.367L71.3578 181.438Z" fill="#473F47"/>
<path d="M68.8393 128.308C69.5283 129.689 69.9684 131.182 70.1392 132.716C70.2174 133.486 70.0916 134.263 69.7747 134.969C69.4577 135.674 68.9607 136.284 68.3338 136.735C67.9597 136.916 67.6082 137.141 67.2866 137.405C66.1854 138.545 67.4582 140.609 66.8082 142.084C66.5418 142.594 66.1563 143.031 65.6848 143.359C65.2132 143.687 64.6695 143.895 64.1001 143.967C63.1744 144.055 62.2418 143.902 61.3921 143.523C61.125 143.449 60.8786 143.314 60.672 143.129C60.4654 142.944 60.304 142.713 60.2005 142.455C60.1579 142.065 60.2105 141.671 60.354 141.306C61.1574 138.201 59.0902 134.97 59.4513 131.802C59.7853 129.087 62.7642 123.892 66.077 124.371C67.8192 124.598 68.2796 127.014 68.8393 128.308Z" fill="#FCBDBA"/>
<path d="M91.7586 161.191C91.7586 161.191 79.1209 172.478 78.2634 172.478C77.4058 172.478 73.3979 167.436 72.1341 165.861L71.773 165.391L71.3217 181.438C69.7647 182.355 68.1448 183.159 66.4742 183.846C64.2737 184.808 61.9438 185.439 59.5596 185.72C58.8061 185.792 58.0474 185.792 57.2938 185.72C51.1646 185.158 48.4745 183.104 48.4745 183.104L51.634 151.425C51.8332 149.182 52.6563 147.04 54.0096 145.244C55.3628 143.447 57.192 142.067 59.2888 141.261C60.0729 140.889 60.9515 140.765 61.8073 140.908C63.5537 141.221 65.3417 141.221 67.0881 140.908C70.6085 140.437 74.2013 145.261 74.2013 145.261L78.8862 160.648L89.872 156.729C90.604 157.19 91.1773 157.865 91.5147 158.663C91.852 159.461 91.9372 160.343 91.7586 161.191V161.191Z" fill="#68E1FD"/>
<path d="M67.1422 126.743C66.4291 127.403 65.716 127.82 65.4091 128.797C65.2064 129.527 65.133 130.287 65.1924 131.042C65.066 131.042 64.9667 130.942 64.9126 130.816C64.8929 130.688 64.8327 130.571 64.7411 130.481C64.6994 130.46 64.6539 130.449 64.6075 130.448C64.5612 130.446 64.5151 130.455 64.4723 130.473C64.4296 130.491 64.3912 130.518 64.3597 130.552C64.3282 130.586 64.3043 130.627 64.2897 130.671C64.2304 130.853 64.2304 131.05 64.2897 131.232C64.5876 132.436 64.9848 133.603 65.1924 134.852C65.1924 134.988 65.1924 135.142 65.2646 135.278C65.33 135.676 65.3085 136.084 65.2014 136.473C65.0562 136.843 64.8347 137.18 64.5515 137.459C64.3828 137.69 64.1714 137.887 63.9286 138.038C63.7013 138.151 63.4576 138.228 63.2065 138.265C62.3925 138.36 61.5692 138.341 60.7602 138.21C60.0762 138.139 59.4067 137.965 58.7743 137.694C58.3806 137.502 58.0032 137.278 57.6459 137.025C56.7804 136.437 55.9705 135.77 55.2267 135.033C53.4213 133.341 52.8255 129.956 52.8616 127.584C52.8616 127.34 52.8616 127.087 52.8616 126.833C52.9194 126.09 53.0899 125.361 53.3671 124.67C54.1061 123.101 55.349 121.826 56.8967 121.049C60.0561 119.339 64.7591 118.47 67.729 121.212C67.8809 121.348 68.0144 121.503 68.1262 121.674C69.0559 123.068 68.2525 125.711 67.1422 126.743Z" fill="#F6A569"/>
<path d="M65.2105 136.436C65.0652 136.807 64.8438 137.143 64.5605 137.423C64.3919 137.654 64.1804 137.851 63.9377 138.002C63.7103 138.115 63.4666 138.192 63.2155 138.228C62.4015 138.323 61.5783 138.305 60.7692 138.174C60.0852 138.103 59.4157 137.929 58.7833 137.658C58.3896 137.466 58.0123 137.242 57.6549 136.988C56.7894 136.4 55.9796 135.734 55.2357 134.997C53.4303 133.305 52.8346 129.92 52.8707 127.548C52.8707 127.304 52.8707 127.05 52.8707 126.797C53.5477 126.272 54.3691 125.973 54.9559 126.598C55.3272 127.161 55.5849 127.791 55.7142 128.453C56.001 129.232 56.3575 129.983 56.7793 130.698C57.1745 131.423 57.7046 132.065 58.341 132.59C59.466 133.346 60.7582 133.815 62.1052 133.956C62.2069 133.38 62.1571 132.788 61.9608 132.237C62.5842 132.976 63.3181 133.614 64.1363 134.128C64.4974 134.364 64.8855 134.581 65.2466 134.852C65.2466 134.988 65.2466 135.142 65.3188 135.278C65.3644 135.667 65.3275 136.062 65.2105 136.436V136.436Z" fill="url(#paint3_linear)"/>
<path d="M53.8997 123.548C53.4434 123.348 52.9594 123.22 52.4645 123.167C52.3722 123.142 52.2751 123.14 52.182 123.162C52.0889 123.184 52.0028 123.23 51.9319 123.294C51.1381 124.018 50.6236 124.998 50.4785 126.064C50.3479 126.51 50.3479 126.984 50.4785 127.431C50.5961 127.716 50.7821 127.968 51.0202 128.164C51.5012 128.6 52.1172 128.857 52.7648 128.891C53.4124 128.926 54.0522 128.736 54.5768 128.354C55.9218 127.186 55.5156 124.326 53.8997 123.548Z" fill="#68E1FD"/>
<path d="M45.2971 147.569C45.3252 147.272 45.4311 146.988 45.604 146.746C45.4864 147.014 45.3839 147.289 45.2971 147.569Z" fill="#F6A569"/>
<path d="M51.0743 141.369C51.1025 140.889 51.0321 140.409 50.8675 139.957C50.7029 139.506 50.4476 139.093 50.1175 138.744C50.4125 139.911 50.3498 141.14 49.9376 142.27C49.5253 143.4 48.7826 144.38 47.8066 145.08C47.3011 145.424 46.7324 145.696 46.2539 146.076C46.0114 146.269 45.7958 146.495 45.613 146.746C46.0193 145.93 46.2848 145.052 46.3984 144.148C46.4266 143.819 46.3803 143.488 46.263 143.179C46.2019 143.026 46.1132 142.885 46.0012 142.763C45.8348 142.58 45.6569 142.408 45.4686 142.247C44.0084 140.836 42.7013 139.273 41.569 137.586C40.1229 135.843 39.0146 133.845 38.3012 131.694C37.8266 129.729 37.9015 127.671 38.5179 125.747C39.0459 123.756 40.1861 121.983 41.7766 120.678C42.6963 120.066 43.7408 119.666 44.834 119.51C45.9271 119.353 47.0414 119.443 48.0954 119.773C48.0954 119.773 53.5567 120.832 52.7172 124.932C52.5006 125.964 52.2568 126.933 52.0763 127.856C51.4986 130.626 51.3271 133.033 53.4213 135.767C54.7754 137.477 53.1054 140.518 51.0743 141.369Z" fill="#F6A569"/>
<path d="M45.2971 147.569C45.3252 147.272 45.4311 146.988 45.604 146.746C45.4864 147.014 45.3839 147.289 45.2971 147.569Z" fill="url(#paint4_linear)"/>
<path d="M51.0743 141.369C51.1025 140.889 51.0321 140.409 50.8675 139.957C50.7029 139.506 50.4476 139.093 50.1175 138.744C50.4125 139.911 50.3498 141.14 49.9376 142.27C49.5253 143.4 48.7826 144.38 47.8066 145.08C47.3011 145.424 46.7324 145.696 46.2539 146.076C46.0114 146.269 45.7958 146.495 45.613 146.746C46.0193 145.93 46.2849 145.052 46.3984 144.148C46.4266 143.819 46.3803 143.488 46.263 143.179C46.2019 143.026 46.1132 142.885 46.0012 142.763C46.6702 141.613 47.0541 140.319 47.1205 138.989C47.2018 136.273 45.595 133.621 45.8568 130.843C46.7258 132.226 47.9031 133.388 49.296 134.237C48.7093 132.743 50.28 127.159 52.0853 127.783C51.5076 130.553 51.3361 132.961 53.4303 135.694C54.7754 137.477 53.1054 140.518 51.0743 141.369Z" fill="url(#paint5_linear)"/>
<path d="M72.1341 165.861L71.7731 165.391L71.3217 181.438C69.7647 182.355 68.1448 183.159 66.4742 183.846C64.2737 184.808 61.9438 185.439 59.5596 185.72C59.6978 183.833 60.5084 182.06 61.8434 180.723C62.692 179.882 63.7481 179.23 64.5515 178.325C65.5383 177.064 66.2155 175.588 66.5284 174.017C68.063 167.988 67.9095 161.68 67.7561 155.471C68.6588 157.797 69.5615 160.15 70.4642 162.44C70.9697 163.608 71.7189 164.667 72.1341 165.861Z" fill="url(#paint6_linear)"/>
<path d="M196.823 119.402L239.926 73.7212L225.366 60.2532L274.364 61.0859L276.585 102.685L264.832 92.5204L237.688 119.402H196.823Z" fill="#68E1FD"/>
<path d="M196.823 119.402L239.926 73.7212L225.366 60.2532L274.364 61.0859L276.585 102.685L264.832 92.5204L237.688 119.402H196.823Z" fill="url(#paint7_linear)"/>
<defs>
<linearGradient id="paint0_linear" x1="192.878" y1="-30.7375" x2="186.126" y2="594.413" gradientUnits="userSpaceOnUse">
<stop offset="0.01" stop-opacity="0.37"/>
<stop offset="0.13" stop-opacity="0.69"/>
<stop offset="0.25" stop-opacity="0.32"/>
<stop offset="1" stop-opacity="0"/>
</linearGradient>
<linearGradient id="paint1_linear" x1="3505.83" y1="3132.11" x2="18611.6" y2="19432.3" gradientUnits="userSpaceOnUse">
<stop offset="0.01" stop-opacity="0.37"/>
<stop offset="0.13" stop-opacity="0.69"/>
<stop offset="0.25" stop-opacity="0.32"/>
<stop offset="1" stop-opacity="0"/>
</linearGradient>
<linearGradient id="paint2_linear" x1="13359.2" y1="652.643" x2="18328.5" y2="31437.5" gradientUnits="userSpaceOnUse">
<stop offset="0.01" stop-opacity="0.38"/>
<stop offset="0.13" stop-opacity="0.69"/>
<stop offset="0.25" stop-opacity="0.32"/>
<stop offset="1" stop-opacity="0"/>
</linearGradient>
<linearGradient id="paint3_linear" x1="1189.88" y1="2014.94" x2="1032.53" y2="2366.28" gradientUnits="userSpaceOnUse">
<stop offset="0.01" stop-opacity="0.37"/>
<stop offset="0.13" stop-opacity="0.69"/>
<stop offset="0.25" stop-opacity="0.32"/>
<stop offset="1" stop-opacity="0"/>
</linearGradient>
<linearGradient id="paint4_linear" x1="67.0607" y1="298.276" x2="67.5565" y2="298.48" gradientUnits="userSpaceOnUse">
<stop offset="0.01" stop-opacity="0.37"/>
<stop offset="0.13" stop-opacity="0.69"/>
<stop offset="0.25" stop-opacity="0.32"/>
<stop offset="1" stop-opacity="0"/>
</linearGradient>
<linearGradient id="paint5_linear" x1="581.106" y1="2844.92" x2="1300.55" y2="3753.36" gradientUnits="userSpaceOnUse">
<stop offset="0.01" stop-opacity="0.37"/>
<stop offset="0.13" stop-opacity="0.69"/>
<stop offset="0.25" stop-opacity="0.32"/>
<stop offset="1" stop-opacity="0"/>
</linearGradient>
<linearGradient id="paint6_linear" x1="1016.86" y1="5998.33" x2="1942.12" y2="6427.9" gradientUnits="userSpaceOnUse">
<stop offset="0.01" stop-opacity="0.37"/>
<stop offset="0.13" stop-opacity="0.69"/>
<stop offset="0.25" stop-opacity="0.32"/>
<stop offset="1" stop-opacity="0"/>
</linearGradient>
<linearGradient id="paint7_linear" x1="17029.8" y1="12158.6" x2="24433.2" y2="-4909.28" gradientUnits="userSpaceOnUse">
<stop offset="0.01" stop-opacity="0.37"/>
<stop offset="0.13" stop-opacity="0.69"/>
<stop offset="0.25" stop-opacity="0.32"/>
<stop offset="1" stop-opacity="0"/>
</linearGradient>
</defs>
</svg>
