<svg width="440" height="351" viewBox="0 0 440 351" fill="none" xmlns="http://www.w3.org/2000/svg">
<path d="M223.234 349.621L224.377 349.777C225.208 350.435 222.888 350.573 223.234 349.621Z" fill="url(#paint0_linear)"/>
<path d="M1.99834 271.352L173.155 196.909C176.859 195.041 181.046 194.347 185.155 194.919L396.85 212.906C400.902 213.477 400.175 230.894 396.85 233.681L271.859 340.186C268.085 343.493 263.573 345.847 258.701 347.052C253.829 348.257 248.74 348.277 243.858 347.111L3.50489 288.699C0.43986 287.955 -0.876201 272.789 1.99834 271.352Z" fill="#68E1FD"/>
<path d="M1.99834 271.352L173.155 196.909C176.859 195.041 181.046 194.347 185.155 194.919L396.85 212.906C400.902 213.477 400.175 230.894 396.85 233.681L271.859 340.186C268.085 343.493 263.572 345.847 258.701 347.052C253.829 348.256 248.74 348.277 243.858 347.111L3.50489 288.699C0.43986 287.955 -0.876201 272.789 1.99834 271.352Z" fill="url(#paint1_linear)"/>
<path d="M396.902 221.354L271.859 327.756C268.097 331.078 263.591 333.449 258.722 334.67C253.852 335.89 248.761 335.923 243.876 334.767L3.48756 276.356C0.422535 275.611 0.0242572 270.764 2.88148 269.327L68.8055 232.157L86.122 222.428L138.782 192.754C142.482 190.892 146.661 190.197 150.765 190.764L394.755 212.075C398.807 212.56 400.175 218.567 396.902 221.354Z" fill="#68E1FD"/>
<path d="M150.747 196.65L373.784 229.63L305.142 285.375L76.217 239.065L150.747 196.65Z" fill="url(#paint2_linear)"/>
<path d="M240.291 255.252C249.773 253.202 258.842 249.567 267.114 244.501C269.4 243.047 271.911 240.433 270.578 238.043C269.677 236.312 267.461 235.845 266.768 234.027C269.798 232.798 273.123 233.369 275.876 230.997C278.63 228.626 278.924 224.072 275.998 222.341C278.293 222.188 280.511 221.449 282.439 220.194C283.378 219.542 284.076 218.598 284.423 217.508C284.771 216.419 284.749 215.246 284.362 214.17C283.305 211.971 280.535 211.348 278.145 210.967C274.799 210.309 271.388 210.036 267.98 210.153C264.08 210.5 260.301 211.681 256.898 213.616C253.711 215.347 251.131 218.359 247.962 219.952C241.486 223.207 232.983 222.843 226.022 224.367C220.827 225.492 215.805 227.448 210.697 228.989C205.589 230.53 200.74 231.638 195.701 232.746C183.51 235.424 171.29 237.963 159.042 240.363C159.838 245.817 165.674 248.829 170.782 250.889C177.873 253.996 185.283 256.318 192.878 257.814C198.829 258.673 204.849 258.946 210.853 258.628C220.752 258.455 230.61 257.324 240.291 255.252V255.252Z" fill="url(#paint3_linear)"/>
<path d="M127.405 252.88L219.321 271.456L171.787 310.236L76.217 288.786L127.405 252.88Z" fill="url(#paint4_linear)"/>
<path d="M81.4293 295.486C82.3673 297.376 83.697 299.046 85.3302 300.383C86.9634 301.72 88.8625 302.695 90.9015 303.242C97.6549 304.869 137.015 314.945 137.015 314.945C137.015 314.945 143.422 315.706 146.972 311.482L81.4293 295.486Z" fill="url(#paint5_linear)"/>
<path d="M143.734 190.746L395.447 226.548C397.294 226.814 399.171 226.36 400.693 225.281C402.214 224.201 403.262 222.579 403.621 220.748L439.535 39.4541C439.92 37.5191 439.892 35.5247 439.454 33.6011C439.016 31.6774 438.177 29.8677 436.993 28.2898C435.808 26.7119 434.304 25.4013 432.579 24.4434C430.854 23.4855 428.946 22.9018 426.981 22.7305L178.402 0.865039C174.743 0.544563 171.104 1.66999 168.265 4.00007C165.426 6.33014 163.613 9.6794 163.215 13.3299L143.734 190.746Z" fill="#68E1FD"/>
<path d="M143.734 190.746L394.824 226.462C396.852 226.749 398.914 226.249 400.585 225.064C402.257 223.879 403.411 222.1 403.811 220.091L439.587 39.4541C439.972 37.5191 439.944 35.5248 439.506 33.6011C439.068 31.6774 438.229 29.8677 437.045 28.2898C435.86 26.7119 434.356 25.4013 432.631 24.4434C430.906 23.4855 428.998 22.9018 427.033 22.7305L178.402 0.865039C174.743 0.544563 171.104 1.66999 168.265 4.00007C165.426 6.33014 163.613 9.6794 163.215 13.3299L143.734 190.746Z" fill="url(#paint6_linear)"/>
<path d="M390.945 216.143L426.703 33.2044L173.172 9.79819L153.016 183.008L390.945 216.143Z" fill="white"/>
<path d="M133.258 292.041C133.208 292.521 133.264 293.006 133.419 293.463C133.574 293.92 133.826 294.338 134.158 294.689C134.52 294.944 134.934 295.115 135.37 295.191C136.51 295.418 137.675 295.488 138.834 295.399C140.983 295.249 143.119 294.942 145.223 294.482L148.86 293.789C149.088 293.775 149.311 293.715 149.516 293.614C149.721 293.513 149.904 293.373 150.055 293.2C150.158 292.971 150.193 292.717 150.156 292.469C150.119 292.22 150.012 291.988 149.847 291.798C149.221 291.087 148.413 290.56 147.509 290.275C145.334 289.391 143.094 288.679 140.808 288.145C140.429 288.088 140.068 287.946 139.751 287.73C139.301 287.332 139.215 286.656 138.903 286.12C138.589 285.67 138.147 285.324 137.635 285.126C137.123 284.929 136.563 284.889 136.028 285.012C134.989 285.219 133.483 285.929 133.24 287.072C133.064 288.724 133.07 290.39 133.258 292.041Z" fill="#F9C6D6"/>
<path d="M144.964 288.578C144.595 288.482 144.207 288.484 143.84 288.585C143.472 288.685 143.137 288.88 142.868 289.149C142.28 290.032 143.059 291.435 142.332 292.231C142.111 292.412 141.857 292.547 141.583 292.628C141.309 292.708 141.022 292.732 140.738 292.698H136.704C135.629 292.743 134.553 292.655 133.5 292.439C133.257 292.35 132.995 292.32 132.738 292.352C132.563 292.408 132.408 292.512 132.292 292.653C132.175 292.795 132.102 292.967 132.08 293.149C132.038 293.514 132.091 293.884 132.236 294.222C132.489 294.954 132.864 295.639 133.344 296.247C133.47 296.432 133.636 296.585 133.829 296.698C134.056 296.781 134.297 296.822 134.539 296.819C136.911 296.819 139.284 296.819 141.656 296.715C143.301 296.594 144.929 296.351 146.574 296.213C148.934 296.209 151.276 295.805 153.501 295.018C153.792 294.919 154.06 294.762 154.289 294.557C154.518 294.352 154.704 294.102 154.834 293.824C154.904 293.567 154.914 293.297 154.863 293.036C154.812 292.775 154.701 292.529 154.54 292.318C154.219 291.902 153.819 291.555 153.362 291.296C152.065 290.47 150.645 289.856 149.154 289.478C147.781 289.079 146.38 288.778 144.964 288.578Z" fill="#565056"/>
<path d="M89.3602 287.609C89.343 287.694 89.343 287.783 89.3602 287.868C89.4988 291.054 93.724 291.14 95.9925 291.019C98.1464 290.867 100.287 290.567 102.4 290.119L106.019 289.426C106.248 289.41 106.472 289.348 106.677 289.244C106.882 289.14 107.065 288.996 107.214 288.82C107.317 288.594 107.353 288.343 107.316 288.097C107.279 287.851 107.171 287.621 107.006 287.435C106.387 286.72 105.585 286.188 104.685 285.895C102.728 285.147 100.734 284.5 98.7112 283.956C96.9795 283.419 98.4168 280.943 98.6073 279.628C98.6944 279.369 98.6944 279.09 98.6073 278.831C98.4131 278.542 98.1158 278.338 97.7761 278.26C96.7268 277.901 95.6292 277.703 94.5206 277.671C94.2997 277.648 94.0768 277.69 93.8799 277.793C93.7006 277.928 93.5676 278.115 93.4989 278.329L90.0356 285.704C89.6934 286.291 89.4643 286.937 89.3602 287.609V287.609Z" fill="#F9C6D6"/>
<path d="M90.9014 193.741C90.9014 193.741 88.3212 208.284 93.6547 219.208C96.4573 225.073 99.585 230.778 103.023 236.295C103.023 236.295 91.9058 248.31 91.9058 263.458C91.9058 278.606 91.6287 279.299 91.6287 279.299L98.2955 282.761L114.919 236.312C114.919 236.312 115.924 229.734 114.919 227.5C113.915 225.267 105.395 199.956 105.395 199.956L90.9014 193.741Z" fill="#473F47"/>
<path d="M151.284 134.724C147.821 134.724 144.063 131.053 141.968 125.375C139.544 118.814 140.583 112.789 144.392 111.387C148.202 109.984 152.895 113.88 155.319 120.458C157.743 127.02 156.704 133.044 152.895 134.447C152.378 134.634 151.833 134.727 151.284 134.724ZM146.089 114.209C145.906 114.202 145.724 114.232 145.552 114.295C143.821 114.953 143.128 119.368 144.946 124.302C146.765 129.236 150.141 132.196 151.873 131.538C153.605 130.88 154.297 126.466 152.479 121.532C150.73 117.048 147.821 114.209 145.968 114.209H146.089Z" fill="#473F47"/>
<path d="M164.964 149.145C164.73 149.147 164.498 149.097 164.285 148.998C164.072 148.899 163.884 148.754 163.735 148.574L152.271 134.17C152.016 133.848 151.9 133.439 151.947 133.031C151.994 132.624 152.201 132.252 152.522 131.997C152.844 131.742 153.253 131.626 153.661 131.673C154.068 131.72 154.441 131.927 154.695 132.248L166.159 146.721C166.344 146.945 166.461 147.218 166.496 147.506C166.531 147.795 166.483 148.087 166.358 148.349C166.232 148.611 166.034 148.832 165.787 148.985C165.54 149.138 165.255 149.218 164.964 149.214V149.145Z" fill="#473F47"/>
<path d="M144.635 127.695C144.819 129.217 144.883 130.751 144.825 132.283C144.534 133.475 143.813 134.517 142.799 135.208C141.782 135.892 140.65 136.384 139.457 136.663C139.104 136.736 138.769 136.877 138.47 137.078C138.262 137.332 138.108 137.626 138.019 137.942C137.93 138.257 137.906 138.588 137.95 138.913V142.826C137.998 143.233 137.9 143.644 137.673 143.986C137.492 144.178 137.256 144.31 136.998 144.367C136.048 144.585 135.052 144.463 134.182 144.024C133.312 143.584 132.624 142.854 132.236 141.96C131.776 141.099 131.273 140.261 130.729 139.45C130.204 138.366 129.898 137.19 129.829 135.988C129.433 132.227 130.137 128.432 131.855 125.063C132.923 122.923 134.476 121.061 136.392 119.627C137.933 118.519 140.912 116.875 142.487 118.779C143.267 119.714 143.249 121.116 143.977 122.103C144.496 122.813 145.431 123.315 145.57 124.181C145.708 125.046 145.137 125.669 144.877 126.396C144.719 126.811 144.637 127.251 144.635 127.695V127.695Z" fill="#F9C6D6"/>
<path d="M156.133 135.624C156.141 135.543 156.141 135.462 156.133 135.382C156.145 134.48 156.484 133.613 157.085 132.941C157.388 132.613 157.794 132.4 158.236 132.336C158.677 132.273 159.127 132.364 159.509 132.594C159.804 132.802 160.029 133.148 160.375 133.304C160.722 133.46 161.466 133.304 161.83 133.72C162.194 134.135 162.09 134.481 162.263 134.845C162.436 135.208 162.938 135.537 163.267 135.884C164.895 137.615 163.094 140.783 162.453 142.566C161.484 145.232 160.531 147.916 159.735 150.651C158.777 150.789 157.801 150.6 156.964 150.114C156.66 149.931 156.391 149.697 156.167 149.422C155.901 148.95 155.736 148.427 155.682 147.888C155.629 147.348 155.688 146.804 155.856 146.288C156.06 145.504 156.119 144.688 156.029 143.882C155.795 143.01 155.506 142.154 155.163 141.32C154.921 140.61 154.713 139.71 155.267 139.208C155.488 139.07 155.696 138.914 155.89 138.74C156.027 138.535 156.099 138.294 156.098 138.048C156.167 137.234 156.098 136.42 156.133 135.624Z" fill="#F9C6D6"/>
<path d="M124.478 199.956L140.635 236.312L139.959 287.799L132.548 287.262C132.548 287.262 119.872 257.97 128.028 239.827C128.028 239.827 108.443 223.086 101.205 213.564C92.3215 201.843 94.2782 192.01 94.2782 192.01L124.478 199.956Z" fill="#565056"/>
<path d="M131.959 137.424C133.942 137.882 135.865 138.567 137.691 139.467C143.89 142.324 144.167 147.223 146.349 153.092C147.735 156.83 149.313 160.493 151.076 164.068L154.072 146.375L162.349 149.733C162.349 149.733 163.181 175.84 157.154 179.355C153.241 181.605 147.752 178.974 144.202 177.156C142.903 176.498 140.738 174.507 139.37 174.317C136.721 173.953 136.548 177.104 134.175 178.939C132.642 179.835 131.172 180.836 129.777 181.934C128.462 183.445 127.476 185.214 126.885 187.128C126.219 189.497 126.025 191.973 126.314 194.417C126.498 195.234 126.507 196.08 126.34 196.901C126.173 197.722 125.833 198.498 125.344 199.177C124.661 199.758 123.825 200.13 122.937 200.251C119.988 200.675 116.992 200.64 114.054 200.147C108.229 199.688 102.463 198.656 96.841 197.065C94.7944 196.433 92.7927 195.664 90.8495 194.763C90.4282 194.583 90.0415 194.331 89.7066 194.018C89.3527 193.604 89.1191 193.101 89.0312 192.564C88.252 188.998 90.7629 185.639 92.1309 182.298C92.9967 180.013 93.2738 177.52 94.053 175.2C95.0712 172.838 96.3863 170.616 97.9666 168.587C99.1268 166.855 99.6982 164.639 100.945 162.77C104.063 157.98 107.536 153.432 111.335 149.162C113.551 146.41 116.021 143.871 118.712 141.579C121.778 138.857 125.712 137.311 129.812 137.217C130.532 137.227 131.25 137.296 131.959 137.424V137.424Z" fill="#68E1FD"/>
<path d="M124.98 104.254C122.824 104.556 120.78 105.402 119.041 106.712C115.248 109.794 114.383 115.369 110.781 118.675C107.698 121.463 103.248 122.016 99.1094 122.449C99.7775 124.369 100.819 126.138 102.174 127.653C103.528 129.169 105.17 130.401 107.003 131.28C108.837 132.159 110.826 132.666 112.856 132.773C114.886 132.879 116.918 132.583 118.833 131.902L114.59 136.126C114.479 136.213 114.4 136.335 114.365 136.472C114.365 136.749 114.625 136.922 114.885 137.009C116.849 137.734 119.016 137.685 120.946 136.87C120.974 137.77 121.32 138.63 121.922 139.299C122.524 139.967 123.344 140.401 124.236 140.523C125.489 140.704 126.768 140.549 127.941 140.073C128.597 139.814 129.298 139.69 130.002 139.71C130.591 139.71 131.128 140.021 131.734 139.814C133.529 138.683 134.97 137.069 135.89 135.157C137.258 132.075 135.249 128.232 136.894 125.185C138.262 122.761 142.557 122.034 143.197 119.298C143.89 116.269 142.245 111.837 140.496 109.448C138.507 106.722 135.575 104.834 132.271 104.15C130.337 103.809 128.363 103.768 126.418 104.029L124.98 104.254Z" fill="#FC682D"/>
<path d="M101.464 283.644C101.094 283.548 100.705 283.553 100.337 283.656C99.9694 283.759 99.6353 283.958 99.3691 284.233C98.7804 285.098 99.5596 286.501 98.8323 287.297C98.6143 287.482 98.3598 287.619 98.0854 287.7C97.811 287.78 97.5227 287.802 97.2392 287.764H93.2045C92.1298 287.826 91.0517 287.738 90.0009 287.505C89.7555 287.424 89.4962 287.395 89.239 287.418C89.0643 287.474 88.9093 287.578 88.7926 287.719C88.6759 287.861 88.6024 288.033 88.581 288.215C88.546 288.58 88.5994 288.948 88.7368 289.288C88.9902 290.02 89.3649 290.705 89.8451 291.313C89.9762 291.493 90.1409 291.646 90.3299 291.764C90.5555 291.853 90.7974 291.895 91.0399 291.885C93.4123 291.885 95.7846 291.885 98.157 291.781C99.8886 291.66 101.43 291.417 103.075 291.296C105.436 291.286 107.778 290.877 110.001 290.084C110.293 289.985 110.561 289.828 110.79 289.623C111.019 289.418 111.204 289.168 111.335 288.89C111.405 288.633 111.415 288.363 111.364 288.102C111.313 287.841 111.202 287.595 111.04 287.384C110.715 286.972 110.316 286.626 109.863 286.362C108.566 285.536 107.146 284.922 105.655 284.544C104.279 284.153 102.88 283.852 101.464 283.644V283.644Z" fill="#565056"/>
<path d="M207.597 256.723C179.597 256.325 157.016 246.752 157.189 235.308C157.189 234.044 156.237 226.86 156.791 225.717C161.207 216.126 183.285 215.001 208.186 215.33C232.689 215.693 253.209 215.33 257.85 224.8C258.525 226.15 258.629 235.36 258.612 236.728C258.456 248.188 235.616 257.087 207.597 256.723Z" fill="#E8A825"/>
<path d="M258.254 227.224C258.418 215.8 235.844 206.213 207.835 205.813C179.826 205.412 156.988 214.348 156.824 225.773C156.661 237.198 179.234 246.784 207.243 247.185C235.252 247.586 258.09 238.649 258.254 227.224Z" fill="#F8C244"/>
<path d="M250.74 227.117C250.879 217.384 231.65 209.218 207.792 208.877C183.933 208.535 164.478 216.148 164.339 225.881C164.2 235.613 183.428 243.779 207.287 244.121C231.146 244.462 250.6 236.849 250.74 227.117Z" fill="#E8A825"/>
<path d="M180.289 224.436L187.216 224.54C187.352 223.64 187.703 222.786 188.24 222.051C188.777 221.315 189.483 220.72 190.298 220.316L194.887 221.025C194.092 221.387 193.4 221.942 192.877 222.641C192.353 223.34 192.014 224.16 191.891 225.025C191.891 227.016 194.662 228.487 198.541 228.487C200.042 228.595 201.55 228.375 202.958 227.843C204.366 227.311 205.642 226.479 206.697 225.406C208.224 223.817 210.09 222.594 212.156 221.826C214.222 221.059 216.434 220.768 218.628 220.974C224.308 220.974 228.62 222.705 229.624 225.336L236.551 225.44V227.171L229.884 227.067C229.782 227.817 229.508 228.534 229.085 229.161C228.661 229.789 228.099 230.31 227.442 230.686L222.94 229.924C223.576 229.572 224.121 229.075 224.53 228.473C224.939 227.872 225.201 227.183 225.295 226.462C225.295 224.332 222.195 223.449 219.442 223.415C217.961 223.331 216.481 223.591 215.118 224.174C213.754 224.756 212.543 225.646 211.58 226.773C208.671 229.595 205.069 230.997 198.904 230.997C193.467 230.997 188.324 229.266 187.285 226.41L180.168 226.306L180.289 224.436Z" fill="#F8C244"/>
<path d="M199.597 236.312C171.596 235.914 149.016 226.34 149.189 214.897C149.189 213.633 148.236 206.449 148.773 205.306C153.206 195.715 175.285 194.59 200.186 194.919C224.689 195.282 245.209 194.919 249.85 204.388C250.525 205.739 250.629 214.949 250.612 216.317C250.456 227.656 227.615 236.624 199.597 236.312Z" fill="#E8A825"/>
<path d="M250.263 206.727C250.426 195.302 227.853 185.716 199.844 185.315C171.835 184.914 148.996 193.851 148.833 205.275C148.669 216.7 171.243 226.286 199.252 226.687C227.261 227.088 250.099 218.151 250.263 206.727Z" fill="#F8C244"/>
<path d="M242.748 206.619C242.887 196.887 223.659 188.72 199.8 188.379C175.941 188.038 156.487 195.651 156.347 205.383C156.208 215.115 175.437 223.282 199.296 223.623C223.154 223.965 242.609 216.352 242.748 206.619Z" fill="#E8A825"/>
<path d="M172.289 203.938L179.216 204.042C179.352 203.142 179.703 202.288 180.24 201.553C180.776 200.818 181.482 200.222 182.298 199.818L186.887 200.528C186.091 200.889 185.4 201.444 184.876 202.144C184.353 202.843 184.014 203.662 183.891 204.527C183.891 206.518 186.662 207.989 190.541 207.989C192.051 208.112 193.57 207.903 194.991 207.376C196.412 206.85 197.7 206.019 198.766 204.942C200.291 203.351 202.157 202.125 204.223 201.358C206.289 200.59 208.503 200.301 210.697 200.51C216.377 200.51 220.689 202.242 221.693 204.873L228.62 204.977V206.708L221.953 206.604C221.851 207.354 221.577 208.071 221.154 208.698C220.731 209.326 220.168 209.847 219.511 210.223L215.009 209.461C215.645 209.109 216.19 208.612 216.599 208.01C217.008 207.409 217.27 206.72 217.364 205.998C217.364 203.886 214.264 203.003 211.511 202.969C210.03 202.885 208.55 203.145 207.187 203.728C205.823 204.31 204.612 205.2 203.649 206.327C200.74 209.149 197.138 210.552 190.974 210.552C185.536 210.552 180.393 208.82 179.354 205.964L172.237 205.86L172.289 203.938Z" fill="#F8C244"/>
<path d="M223.2 226.496C195.182 226.081 172.601 216.507 172.774 205.081C172.774 203.817 171.822 196.632 172.376 195.49C176.791 185.899 198.887 184.774 223.788 185.102C248.291 185.466 268.811 185.102 273.435 194.572C274.11 195.923 274.214 205.15 274.197 206.518C274.058 217.944 251.2 226.894 223.2 226.496Z" fill="#E8A825"/>
<path d="M273.857 196.999C274.021 185.574 251.448 175.988 223.439 175.587C195.429 175.186 172.591 184.123 172.427 195.548C172.264 206.972 194.837 216.559 222.846 216.959C250.855 217.36 273.694 208.424 273.857 196.999Z" fill="#F8C244"/>
<path d="M266.343 196.891C266.482 187.159 247.254 178.993 223.395 178.651C199.536 178.31 180.081 185.923 179.942 195.655C179.803 205.388 199.031 213.554 222.89 213.895C246.749 214.237 266.203 206.624 266.343 196.891Z" fill="#E8A825"/>
<path d="M195.874 194.191L202.801 194.295C202.936 193.395 203.286 192.54 203.823 191.805C204.36 191.069 205.067 190.474 205.883 190.071L210.472 190.798C209.679 191.165 208.989 191.722 208.463 192.419C207.937 193.117 207.592 193.934 207.459 194.797C207.459 196.771 210.23 198.173 214.126 198.26C215.636 198.382 217.155 198.173 218.576 197.647C219.997 197.12 221.285 196.29 222.351 195.213C223.875 193.625 225.738 192.402 227.801 191.634C229.864 190.867 232.073 190.575 234.265 190.781C239.962 190.781 244.274 192.512 245.261 195.161L252.188 195.265V196.996L245.538 196.892C245.429 197.642 245.151 198.357 244.725 198.984C244.299 199.611 243.736 200.133 243.079 200.51L238.577 199.749C239.213 199.394 239.759 198.897 240.17 198.296C240.582 197.696 240.848 197.007 240.949 196.286C240.949 194.174 237.832 193.291 235.096 193.239C233.616 193.16 232.137 193.422 230.774 194.004C229.411 194.586 228.2 195.474 227.234 196.598C224.308 199.437 220.723 200.839 214.541 200.839C209.104 200.839 203.978 199.108 202.939 196.252L195.822 196.148L195.874 194.191Z" fill="#F8C244"/>
<path d="M188.965 127.349C188.151 126.777 192.428 98.212 192.428 98.212L206.957 99.6317L203.234 128.335L188.965 127.349Z" fill="#68E1FD"/>
<path d="M218.005 130.171C217.191 129.582 224.446 86.8899 224.446 86.8899L238.975 88.3095L232.325 131.244L218.005 130.171Z" fill="#68E1FD"/>
<path d="M247.045 132.975C246.248 132.404 257.833 56.2817 257.833 56.2817L272.361 57.7013L261.365 133.962L247.045 132.975Z" fill="#68E1FD"/>
<path d="M276.084 135.797C275.288 135.226 284.396 77.9567 284.396 77.9567L298.925 79.3763L290.405 136.784L276.084 135.797Z" fill="#68E1FD"/>
<path d="M290.682 144.661L176.913 136.403L177.016 135.711C178.194 126.639 188.584 47.0542 189.138 45.5827L190.385 45.9809C189.952 47.7121 182.454 104.652 178.471 135.191L290.821 143.328L290.682 144.661Z" fill="#68E1FD"/>
<path opacity="0.39" d="M338.822 170.526L341.489 156.52C334.124 156.686 326.88 154.622 320.709 150.599L325.904 141.302C331.609 145.189 338.378 147.215 345.281 147.102C355.533 147.102 363.446 141.337 364.953 133.443C366.459 125.548 361.732 121.151 351.948 117.031C338.372 111.594 330.58 105.275 332.9 93.2607C335.099 81.7654 345.212 72.9881 358.875 70.7548L361.541 56.7838H370.425L367.741 70.2181C373.959 70.1623 380.076 71.7959 385.438 74.9443L380.157 84.2584C375.02 81.0553 369.047 79.4523 362.996 79.6533C351.965 79.6533 346.615 86.1281 345.558 91.6507C344.173 98.8526 348.796 102.419 360.277 107.318C373.94 113.031 380.001 120.164 377.594 132.49C375.516 143.432 365.645 153.75 350.476 156.208L347.827 170.526H338.822Z" fill="#68E1FD"/>
<defs>
<linearGradient id="paint0_linear" x1="221.866" y1="348.444" x2="226.991" y2="352.271" gradientUnits="userSpaceOnUse">
<stop offset="0.01" stop-opacity="0.35"/>
<stop offset="0.08" stop-opacity="0.69"/>
<stop offset="0.21" stop-opacity="0.32"/>
<stop offset="1" stop-opacity="0"/>
</linearGradient>
<linearGradient id="paint1_linear" x1="69720.3" y1="26173.1" x2="74699.3" y2="67365.1" gradientUnits="userSpaceOnUse">
<stop offset="0.01" stop-opacity="0.51"/>
<stop offset="0.08" stop-opacity="0.69"/>
<stop offset="0.21" stop-opacity="0.32"/>
<stop offset="1" stop-opacity="0"/>
</linearGradient>
<linearGradient id="paint2_linear" x1="58018.5" y1="7410.03" x2="56729.3" y2="36631.7" gradientUnits="userSpaceOnUse">
<stop offset="0.01" stop-opacity="0.35"/>
<stop offset="0.08" stop-opacity="0.69"/>
<stop offset="0.21" stop-opacity="0.32"/>
<stop offset="1" stop-opacity="0"/>
</linearGradient>
<linearGradient id="paint3_linear" x1="21430.2" y1="9861.11" x2="33912.4" y2="21019.1" gradientUnits="userSpaceOnUse">
<stop offset="0.01" stop-opacity="0.35"/>
<stop offset="0.08" stop-opacity="0.69"/>
<stop offset="0.21" stop-opacity="0.32"/>
<stop offset="1" stop-opacity="0"/>
</linearGradient>
<linearGradient id="paint4_linear" x1="21162.6" y1="7505.49" x2="20300.9" y2="22037.9" gradientUnits="userSpaceOnUse">
<stop offset="0.01" stop-opacity="0.35"/>
<stop offset="0.08" stop-opacity="0.69"/>
<stop offset="0.21" stop-opacity="0.32"/>
<stop offset="1" stop-opacity="0"/>
</linearGradient>
<linearGradient id="paint5_linear" x1="9650.06" y1="5006.81" x2="9520.85" y2="6123.06" gradientUnits="userSpaceOnUse">
<stop offset="0.01" stop-opacity="0.53"/>
<stop offset="0.08" stop-opacity="0.69"/>
<stop offset="0.21" stop-opacity="0.32"/>
<stop offset="1" stop-opacity="0"/>
</linearGradient>
<linearGradient id="paint6_linear" x1="69027.7" y1="9549.16" x2="83544.8" y2="175872" gradientUnits="userSpaceOnUse">
<stop offset="0.01" stop-color="#181922" stop-opacity="0.76"/>
<stop offset="0.08" stop-opacity="0.69"/>
<stop offset="0.21" stop-opacity="0.32"/>
<stop offset="1" stop-opacity="0"/>
</linearGradient>
</defs>
</svg>
